<?xml version="1.0" encoding="UTF-8" standalone="no"?>
<svg
   xmlns:dc="http://purl.org/dc/elements/1.1/"
   xmlns:cc="http://creativecommons.org/ns#"
   xmlns:rdf="http://www.w3.org/1999/02/22-rdf-syntax-ns#"
   xmlns:svg="http://www.w3.org/2000/svg"
   xmlns="http://www.w3.org/2000/svg"
   xmlns:sodipodi="http://sodipodi.sourceforge.net/DTD/sodipodi-0.dtd"
   xmlns:inkscape="http://www.inkscape.org/namespaces/inkscape"
   viewBox="30 -115 580 830"
   version="1.1"
   id="svg6"
   sodipodi:docname="b-0.svg"
   inkscape:version="1.0rc1 (09960d6f05, 2020-04-09)">
  <metadata
     id="metadata12">
    <rdf:RDF>
      <cc:Work
         rdf:about="">
        <dc:format>image/svg+xml</dc:format>
        <dc:type
           rdf:resource="http://purl.org/dc/dcmitype/StillImage" />
      </cc:Work>
    </rdf:RDF>
  </metadata>
  <defs
     id="defs10" />
  <sodipodi:namedview
     inkscape:document-rotation="0"
     pagecolor="#ffffff"
     bordercolor="#666666"
     borderopacity="1"
     objecttolerance="10"
     gridtolerance="10"
     guidetolerance="10"
     inkscape:pageopacity="0"
     inkscape:pageshadow="2"
     inkscape:window-width="1080"
     inkscape:window-height="698"
     id="namedview8"
     showgrid="false"
     inkscape:zoom="0.5"
     inkscape:cx="266.69678"
     inkscape:cy="391.12095"
     inkscape:window-x="-6"
     inkscape:window-y="-6"
     inkscape:window-maximized="1"
     inkscape:current-layer="svg6" />
  <path
     d="m 296,16 q 0,-3 -4,-3 -2,0 -5.5,2.5 Q 283,18 281,17 280,17 263,5.5 246,-6 241,-6 q -3,0 -3,3 0,1 9.5,10 9.5,9 9.5,10 0,1 -2,1 -6,0 -14.5,-1.5 Q 232,15 231,15 q -3,0 -3,2 0,7 37,11 7,1 9,5 2,4 2,21 0,7 -1.5,14.5 -1.5,7.5 -1.5,8.5 0,2 3,2 11,0 16,-8 1,-2 1,-8 0,-21 -5,-36 8,-6 8,-11 z m 51,25 q 0,-14 2.5,-18.5 2.5,-4.5 12,-6 Q 371,15 378,11 378,10 379.5,9 381,8 381,7 381,5 376,5 374,5 361.5,7 349,9 345,9 344,9 334.5,1.5 325,-6 320,-6 q -2,0 -2,3 0,1 4,5 8,10 5,10 -1,0 -12.5,-5 Q 303,2 299,2 q -3,0 -3,2 0,3 18,14.5 18,11.5 18,26.5 0,4 -0.5,9.5 -0.5,5.5 -1.5,12 -1,6.5 -1,10.5 -1,3 2,3 h 1 q 17,0 17,-10 0,-4 -1,-14.5 Q 347,45 347,41 Z m -94,159 q 0,-3 -3,-3 -3,0 -7,6 -4,6 -4,10 0,2 2,2 4,0 8,-5.5 4,-5.5 4,-9.5 z m 193,28 q 0,1 6.5,4.5 6.5,3.5 16.5,6.5 10,3 17,3 9,0 12,-6 1,-2 -1,-2.5 -2,-0.5 -9,-0.5 -11,-1 -20.5,-2.5 Q 458,229 454,228 q -4,-1 -5,-1 -3,0 -3,1 z m -268,2 q -8,0 -27.5,4.5 -19.5,4.5 -19.5,9.5 0,2 11,2 5,0 14.5,-3.5 9.5,-3.5 16.5,-7 7,-3.5 7,-4.5 0,-1 -2,-1 z m 26,25 q 0,1 2,1 3,0 16,-13 13,-13 13,-20 0,-7 -6,-7 -8,0 -20,5 -12,5 -12,8 0,1 3,1 3,0 10.5,-2 7.5,-2 8.5,-2 2,0 2,2 0,4 -8.5,14.5 Q 204,253 204,255 Z m 224,-17 q 0,1 11.5,9.5 11.5,8.5 28,17 16.5,8.5 25.5,8.5 9,0 9,-3 0,-3 -67,-31 -8,-4 -7,-1 z m -233,8 q 0,-2 -2,-2 -4,0 -28,20 -8,6 -19.5,11.5 -11.5,5.5 -18.5,8.5 -7,3 -7,4 0,2 8,2 16,-1 32.5,-11 16.5,-10 25.5,-19.5 9,-9.5 9,-13.5 z m 198,-9 q 28,31 58,50 30,19 46,19 6,0 6,-4 0,-2 -2,-3 -5,-4 -21,-11.5 Q 464,280 459,277 439,264 422.5,252 406,240 399.5,235.5 393,231 391,231 q -4,0 2,6 z m -259,94 q 6,0 20,-5 14,-5 35.5,-21 21.5,-16 34.5,-40 4,-10 4,-11 0,-3 -2,-3 l -11,11 q -56,55 -82,65 -3,1 -3,3 0,1 4,1 z"
     style="stroke:none;stroke-opacity:1;fill-rule:nonzero;fill:#cc0000;fill-opacity:1"
     id="path45" />
  <path
     id="path21"
     style="stroke:none;stroke-opacity:1;fill-rule:evenodd;fill:#006600;fill-opacity:1"
     d="m 351,302 q 9,0 9,-8 0,-12 -10,-12 -9,0 -9,11 0,9 10,9 z m -74,-5 q 0,10 10,10 10,0 10,-11 0,-8 -9,-8 -11,0 -11,9 z m 139,25 q 0,-3 -3,-6 -3,-3 -5,-3 -10,0 -10,7 0,11 9,11 9,0 9,-9 z m -179,44 q 10,0 10,-12 0,-8 -11,-8 -10,0 -10,8 0,12 11,12 z m 76,-9 q 0,-8 -9,-8 -11,0 -11,8 0,11 10,11 10,0 10,-11 z m 56,18 q 10,0 10,-12 0,-9 -11,-9 -9,0 -9,10 0,11 10,11 z m 65,-13 q -12,0 -12,9 0,5 4,8.5 4,3.5 8,3.5 8,0 8,-11 0,-10 -8,-10 z m -88,54 q 0,-10 -11,-10 -11,0 -11,10 0,10 11,10 11,0 11,-10 z m -99,3 q 0,4 4,8 4,4 8,4 4,0 7.5,-4 3.5,-4 3.5,-8 0,-9 -12,-9 -11,0 -11,9 z m 159,9 q 0,11 10,11 9,0 9,-10 0,-10 -11,-10 -8,0 -8,9 z m -108,45 q 0,10 13,10 9,0 9,-9 0,-11 -11,-11 -11,0 -11,10 z m 78,-10 q -9,0 -9,9 0,11 10,11 10,0 10,-9 0,-11 -11,-11 z m -224,72 q 3,0 32.5,-45 29.5,-45 36.5,-45 2,0 2,2 0,3 -26.5,38 -26.5,35 -26.5,46 0,3 3,3 2,0 28,-38 26,-38 30,-38 2,0 2,1 0,4 -23.5,37.5 Q 186,530 186,535 q 0,3 3,3 4,0 23,-32 19,-32 22,-32 2,0 2,2 0,2 -11,22 -11,20 -11,26 0,4 2,4 3,0 17,-29.5 14,-29.5 15,-29.5 2,0 2,4 0,4 -12,31 -12,27 -12,31 0,3 3,3 2,0 15,-29 l 14,-29 q 6,-8 8,-5 0,1 -12.5,43.5 Q 241,561 241,575 q 0,6 3,6 4,0 15.5,-46.5 Q 271,488 274,488 q 4,0 4,5 0,4 -9,34.5 -9,30.5 -9,50.5 0,10 2,10 7,0 15,-42.5 8,-42.5 10,-42.5 3,0 3,10 0,4 -3.5,30 -3.5,26 -3.5,35 0,16 3,16 4,0 8,-24.5 4,-24.5 4,-47.5 0,-15 5,-15 3,0 3,16 0,9 -1.5,29 -1.5,20 -1.5,27 0,12 3,12 5,0 7.5,-40 2.5,-40 5.5,-40 5,0 5,30 0,31 2,31 7,0 7,-32 0,-4 -0.5,-13 -0.5,-9 -0.5,-13 0,-9 5,-5 2,1 2,3 1,2 4,16 3,14 6.5,24 3.5,10 7.5,10 3,0 3,-7 0,-5 -5,-21.5 -5,-16.5 -5,-22.5 0,-2 3,-2 3,0 17,42 14,42 18,42 3,0 3,-15 -1,-8 -6.5,-24 -5.5,-16 -10,-28.5 Q 370,513 370,512 q 0,-3 3,-3 3,0 19.5,40.5 16.5,40.5 21.5,40.5 2,0 2,-4 0,-11 -13.5,-41 -13.5,-30 -13.5,-34 1,-1 2,-1 3,0 21.5,33.5 18.5,33.5 20.5,33.5 3,0 3,-4 0,-5 -9,-24 -6,-11 -12.5,-21.5 Q 408,517 405,512 q -3,-5 -3,-6 0,-2 3,-2 4,0 19,25.5 15,25.5 17,25.5 3,0 3,-4 0,-8 -14,-29 l -15,-21 q 0,-3 2,-3 2,0 16.5,20 14.5,20 18.5,20 2,0 2,-4 0,-6 -18.5,-26.5 Q 417,487 417,485 l 2,-2 q 7,0 40,33 30,33 33,33 2,0 2,-4 0,-11 -32.5,-40 -32.5,-29 -32.5,-30 0,-2 2,-2 8,0 43.5,32 35.5,32 39.5,32 2,0 2,-3 0,-7 -38,-38.5 -38,-31.5 -38,-33.5 0,-3 0.5,-3 h 2.5 q 3,0 35,23.5 32,23.5 37,23.5 2,0 2,-2 0,-4 -6,-9 -30,-22 -54,-37 -9,-6 -9,-9 0,-3 2,-3 1,0 26.5,16 25.5,16 33.5,16 5,0 2,-5 -1,-3 -13,-9.5 -12,-6.5 -26,-14 -14,-7.5 -18,-10.5 -5,-5 3,-5 2,0 22,11 20,11 27,11 5,0 5,-4 0,-2 -24.5,-13 -24.5,-11 -24.5,-15 0,-3 4,-3 1,0 22.5,5.5 21.5,5.5 24.5,5.5 8,0 8,-4 0,-4 -31,-11 -31,-7 -31,-10 0,-4 3,-4 5,0 27,5.5 22,5.5 27,5.5 5,0 5,-3 0,-3 -4.5,-4.5 -4.5,-1.5 -18.5,-4 -14,-2.5 -27,-6.5 -3,-1 -4.5,-3 -1.5,-2 0,-3.5 1.5,-1.5 4.5,-1.5 5,0 22,4 17,4 20,4 5,0 5,-3 0,-6 -45,-13 -2,0 -3.5,-2 -1.5,-2 0,-4 1.5,-2 5.5,-2 3,0 16.5,3 13.5,3 18.5,3 3,0 3,-1 0,-5 -22,-9.5 -22,-4.5 -22,-7.5 0,-3 7,-3 5,0 16,3 l 11,2 q 5,0 5,-3 0,-5 -28.5,-9 -28.5,-4 -28.5,-11 1,-1 3,-1 2,0 10.5,2 8.5,2 12.5,2 6,0 6,-4 0,-3 -14,-5 -14,-2 -18,-2 -5,0 -5,-3 0,-2 3,-2 4,0 11,1 7,1 8,1 4,0 4,-3 0,-7 -28,-7 -3,-1 -3,-7 2,0 7,0.5 5,0.5 7.5,1 2.5,0.5 3.5,-0.5 0,-3 -4.5,-4.5 Q 451,306 443.5,304 436,302 431,298 421,289 409.5,287.5 398,286 394,285 393,285 376.5,270.5 360,256 344,256 q -4,0 -14,3.5 -10,3.5 -15,3.5 -3,0 -12,-3 -9,-3 -15,-3 -11,0 -20,8.5 -9,8.5 -10,9.5 -1,0 -9.5,2.5 -8.5,2.5 -14,5 -5.5,2.5 -5.5,5.5 0,2 2,2 3,0 9,-2.5 6,-2.5 8,-2.5 2,0 2,2 0,3 -17,7 -17,4 -17,8 0,2 3,2 4,0 13,-2 l 9,-3 q 5,0 5,1 0,6 -7,6 -41,7 -41,15 0,3 3,3 3,0 18.5,-6 15.5,-6 19.5,-6 3,0 3,2 0,3 -7.5,6 -7.5,3 -19,7 -11.5,4 -18.5,8 -19,12 -38,31 -19,19 -19,24 0,4 3,4 2,0 21,-17.5 19,-17.5 25,-17.5 2,0 2,3 0,2 -6.5,7 -6.5,5 -16.5,14 -10,9 -17,19 -3,4 -3.5,7 -0.5,3 0,5 0.5,2 1.5,2 2,0 20.5,-20.5 Q 188,375 194,375 q 2,0 2,2 0,2 -22,27 -22,25 -22,32 0,3 2,3 2,0 22.5,-23.5 Q 197,392 204,392 l 1,2 q 0,1 -24,28 -24,27 -24,38 0,2 1,2 3,0 25,-28.5 22,-28.5 27,-28.5 3,0 3,2 0,3 -11.5,17.5 -11.5,14.5 -25,31 Q 163,472 159,478 q -6,10 1,10 2,0 24,-28 22,-28 28,-28 2,0 2,1 0,2 -4.5,7 -4.5,5 -10.5,12 -6,7 -9,10 -41,56 -41,70 0,3 3,3 z m 223,-85 q 7,0 16.5,6 9.5,6 9.5,19 0,21 -22,21 -27,0 -27,-23 0,-11 6.5,-17 6.5,-6 16.5,-6 z m -40,24 q 0,7 -6.5,14 -6.5,7 -16.5,7 -29,0 -29,-28 0,-8 7.5,-12.5 7.5,-4.5 14.5,-4.5 11,0 20.5,8 9.5,8 9.5,16 z m 53,-45 q 0,-23 24,-23 10,0 18.5,6.5 8.5,6.5 8.5,16.5 0,24 -23,24 -12,0 -20,-7.5 -8,-7.5 -8,-16.5 z M 286,419 q 0,11 -8,19.5 -8,8.5 -18,8.5 -13,0 -22,-7.5 -9,-7.5 -9,-20.5 0,-26 29,-26 11,0 19.5,8 8.5,8 8.5,18 z m 47,-29 q 3,0 8.5,1.5 5.5,1.5 12.5,9 7,7.5 7,19.5 0,13 -7.5,18.5 -7.5,5.5 -14.5,5.5 -9,0 -21,-6 -12,-6 -12,-20 0,-11 8,-19.5 8,-8.5 19,-8.5 z m 97,-40 q 27,0 27,22 0,9 -6,17 -6,8 -17,8 -8,0 -17,-6 -9,-6 -9,-18 0,-9 6,-16 6,-7 16,-7 z m -88,15 q 0,-11 8,-17 8,-6 18,-6 25,0 25,23 0,9 -6.5,16.5 -6.5,7.5 -16.5,7.5 -13,0 -20.5,-7 -7.5,-7 -7.5,-17 z m -42,20 q -11,0 -18,-8.5 -7,-8.5 -7,-19.5 0,-25 32,-25 12,0 18.5,9 6.5,9 6.5,17 0,27 -32,27 z m -64,-4 q -8,0 -17,-6.5 -9,-6.5 -9,-22.5 0,-4 1.5,-8 1.5,-4 8,-8.5 6.5,-4.5 16.5,-4.5 28,0 28,23 0,11 -8.5,19 -8.5,8 -19.5,8 z m 147,-62 q 0,-7 9,-13 9,-6 15,-6 9,0 16.5,6.5 7.5,6.5 7.5,13.5 0,9 -7.5,16.5 -7.5,7.5 -17.5,7.5 -9,0 -16,-8 -7,-8 -7,-17 z m -72,-24 q 0,26 -25,26 -24,0 -24,-21 0,-10 7.5,-18 7.5,-8 20.5,-8 21,0 21,21 z m 64,3 q 0,11 -9.5,16 -9.5,5 -18.5,5 -22,0 -22,-28 0,-22 22,-22 5,0 10,1.5 5,1.5 11.5,8.5 6.5,7 6.5,19 z" />
  <path
     d="M 610,655 V -55 Q 610,-80 592.5,-97.5 575,-115 550,-115 H 90 Q 65,-115 47.5,-97.5 30,-80 30,-55 v 710 q 0,25 17.5,42.5 Q 65,715 90,715 h 460 q 25,0 42.5,-17.5 Q 610,680 610,655 Z m -60,30 H 90 Q 77,685 68.5,676.5 60,668 60,655 V -55 Q 60,-68 68.5,-76.5 77,-85 90,-85 h 460 q 13,0 21.5,8.5 8.5,8.5 8.5,21.5 v 710 q 0,13 -8.5,21.5 Q 563,685 550,685 Z"
     style="stroke:none;stroke-opacity:1;fill-rule:nonzero;fill:#999999;fill-opacity:1"
     id="path17" />
  <path
     id="path2"
     style="stroke:none;stroke-opacity:1;fill-rule:nonzero;fill:#000066;fill-opacity:1"
     d="m 232,181 q 0,7 -14,7 -6,0 -6,-2 0,-3 7,-5 7,-2 10,-2 3,0 3,2 z m 72,36 q 0,4 -6,4 -10,0 -10,-9 0,-5 6,-5 10,0 10,10 z m -16,-71 q 0,5 -3,5 -4,0 -9.5,-6.5 Q 270,138 270,134 q 0,-4 4,-4 3,0 8.5,6 5.5,6 5.5,10 z m 32,31 q 0,8 -7,8 -9,0 -9,-7 0,-8 8,-8 8,0 8,7 z m -92,-62 q -51,0 -51,-5 0,-4 13,-4 4,0 15,0.5 11,0.5 17,0.5 13,0 13,4 0,4 -7,4 z m 98,124 q -7,0 -7,-5 0,-5 7,-5 6,0 6,5 0,5 -6,5 z m 17,-3 q -7,0 -7,-8 0,-5 6,-5 9,0 9,7 0,6 -8,6 z m -32,-2 q -8,0 -8,-6 0,-6 8,-6 2,-1 4,0.5 2,1.5 2,4.5 0,7 -6,7 z m 13,-24 q 9,0 9,8 0,6 -7,6 -8,0 -8,-8 0,-6 6,-6 z m 37,8 q 0,5 -5,5 -6,0 -6,-5 0,-6 5,-6 6,0 6,6 z m -43,-14 q 0,7 -7,7 -7,0 -7,-7 0,-7 7,-7 7,0 7,7 z m 31,3 q 0,6 -9,6 -2,0 -5,-3 -3,-3 -3,-6 0,-6 8,-6 3,0 6,3 3,3 3,6 z m 78,-12 q 0,-4 4,-4 26,0 26,7 0,4 -8,4 -5,0 -13.5,-2.5 Q 427,197 427,195 Z m -102,5 q -8,0 -8,-8 -1,-3 2.5,-5.5 3.5,-2.5 5.5,-2.5 8,0 8,7 0,9 -8,9 z m -29,-17 q 7,0 7,8 0,7 -7,7 -8,0 -8,-8 0,-7 8,-7 z m 170,3 q -23,0 -23,-8 0,-3 6,-3 3,0 11,0.5 8,0.5 10,0.5 6,0 6,4 0,6 -10,6 z m -292,-3 q 0,-5 19,-5 6,0 6,3 0,6 -15,6 -10,0 -10,-4 z m 109,-19 q 2,0 4.5,4 2.5,4 2.5,6 0,8 -7,8 -12,0 -12,-10 0,-8 12,-8 z m -78,11 q 0,-3 10.5,-6 10.5,-3 15.5,-3 2,0 2,2 0,2 -7.5,6 -7.5,4 -14.5,4 -6,0 -6,-3 z m 93,-5 q -2,0 -4.5,-3 -2.5,-3 -2.5,-5 0,-7 7,-7 7,0 7,9 0,6 -7,6 z m 158,-10 q 0,-4 26,-4 9,0 9,3 0,6 -16,6 -19,0 -19,-5 z m -297,8 q 0,-6 22,-6 7,0 7,3 0,8 -17,8 -12,0 -12,-5 z m 117,-12 q 0,6 -7,6 -8,0 -8,-15 0,-6 4,-6 2,0 6.5,5.5 4.5,5.5 4.5,9.5 z m -78,4 q 0,-1 13,-3.5 13,-2.5 15,-2.5 4,0 4,1 0,2 -3,4 -3,2 -9,4 -6,2 -12,2 -8,0 -8,-5 z m 308,-23 q 0,9 -26,9 -8,0 -11,-1 -3,-1 -2,-4 0,-3 14.5,-5.5 14.5,-2.5 18.5,-2.5 6,0 6,4 z m -344,18 q -18,0 -18,-6 0,-5 18,-5 16,0 16,5 0,6 -16,6 z m 68,-13 q 0,8 -27,8 -13,0 -13,-5 0,-5 31,-5 9,0 9,2 z m 1,-16 q 0,8 -39,8 -12,0 -12,-5 0,-2 1,-2.5 1,-0.5 4.5,-1 3.5,-0.5 7,-0.5 H 204 q 0,0 15,-1 12,-1 12,2 z m -98,-1 q 0,-4 10,-4 7,0 16.5,3 9.5,3 9.5,5 0,5 -12,5 -24,0 -24,-9 z m 367,-4 q -8,2 -17,2 -9,0 -9,-3 0,-9 31,-12 5,-1 5,3 0,8 -10,10 z M 166,108 q 0,4 -12,4 -9,0 -15.5,-2 -6.5,-2 -9,-5 -2.5,-3 -2.5,-5 0,-4 4,-4 5,0 20,4.5 15,4.5 15,7.5 z m 188,-8 q -8,0 -24,3 -16,3 -23,3 -5,0 -20,-6 -15,-6 -24,-6 -5,0 -21,2.5 -16,2.5 -23,2.5 -59,0 -104,-17 -2,4 -2,12 0,42 28,72.5 28,30.5 56,30.5 8,0 18,-3 10,-3 11,-3 4,0 4,3 0,1 -2.5,4.5 -2.5,3.5 -2.5,4.5 0,5 2,5 2,0 5,-4 3,-4 5.5,-13.5 2.5,-9.5 2.5,-20.5 0,-5 -0.5,-18 -0.5,-13 -0.5,-16 0,-34 21,-34 7,0 24,6.5 17,6.5 28,6.5 3,0 7,-0.5 4,-0.5 6,-0.5 16,0 16,22 0,7 -8.5,13.5 Q 324,156 316,156 306,156 292.5,139 279,122 270,122 q -16,0 -16,24 0,10 5.5,28 5.5,18 5.5,27 0,12 -5.5,17.5 -5.5,5.5 -11.5,6.5 -6,1 -6,2 0,2 6,2 10,0 18,-10.5 8,-10.5 10,-10.5 2,0 8,9 6,9 18,17.5 12,8.5 29,8.5 20,0 33,-18.5 13,-18.5 14,-18.5 l 15,4 q 15,5 37,5 30,0 63,-31 33,-31 33,-77 l -3,-17 q -2,0 -37,6 -35,6 -57,6 -35,0 -52,-1 -17,-1 -23,-1 z m 1,7 q 6,0 36.5,4.5 30.5,4.5 56.5,4.5 14,0 14,4 0,8 -19,8 -11,0 -34,-4 -23,-4 -28,-4 -4,0 -4,1 0,5 26,10.5 26,5.5 37,5.5 11,0 11,5 0,5 -10,5 -10,0 -30.5,-5 -20.5,-5 -25.5,-5 -3,0 -3,2 0,7 46,14 11,1 11,6 0,3 -6,3 -7,0 -25.5,-5.5 Q 389,151 386,151 q -6,0 1,5 2,2 4,3 6,2 13,4.5 7,2.5 10.5,3.5 l 7,2 q 0,0 4.5,2.5 4.5,2.5 1,2.5 0,3 -5,3 -6,0 -20.5,-5.5 Q 387,166 385,166 q -3,0 -3,1 0,3 18.5,11.5 18.5,8.5 18.5,10.5 0,3 -4,3 -3,0 -17,-7.5 -14,-7.5 -18,-7.5 -2,0 -2,2 0,4 16.5,12.5 16.5,8.5 16.5,11.5 0,2 -4,2 -7,0 -17.5,-5.5 Q 379,194 372,189 l -8,-5 q -4,0 -4,4 0,1 3.5,6.5 3.5,5.5 3.5,7.5 0,4 -6,4 -6,0 -22,-18 -16,-18 -16,-21 0,-1 13.5,-9.5 Q 350,149 350,133 q 0,-15 -9,-24 8,-2 14,-2 z" />
</svg>
