<?xml version="1.0" encoding="UTF-8" standalone="no"?>
<svg
   xmlns:dc="http://purl.org/dc/elements/1.1/"
   xmlns:cc="http://creativecommons.org/ns#"
   xmlns:rdf="http://www.w3.org/1999/02/22-rdf-syntax-ns#"
   xmlns:svg="http://www.w3.org/2000/svg"
   xmlns="http://www.w3.org/2000/svg"
   xmlns:sodipodi="http://sodipodi.sourceforge.net/DTD/sodipodi-0.dtd"
   xmlns:inkscape="http://www.inkscape.org/namespaces/inkscape"
   inkscape:version="1.0rc1 (09960d6f05, 2020-04-09)"
   sodipodi:docname="b-3.svg"
   id="svg6"
   version="1.1"
   viewBox="30 -115 580 830">
  <metadata
     id="metadata12">
    <rdf:RDF>
      <cc:Work
         rdf:about="">
        <dc:format>image/svg+xml</dc:format>
        <dc:type
           rdf:resource="http://purl.org/dc/dcmitype/StillImage" />
      </cc:Work>
    </rdf:RDF>
  </metadata>
  <defs
     id="defs10" />
  <sodipodi:namedview
     inkscape:current-layer="svg6"
     inkscape:window-maximized="1"
     inkscape:window-y="-6"
     inkscape:window-x="-6"
     inkscape:cy="415"
     inkscape:cx="290"
     inkscape:zoom="0.29879518"
     showgrid="false"
     id="namedview8"
     inkscape:window-height="698"
     inkscape:window-width="1080"
     inkscape:pageshadow="2"
     inkscape:pageopacity="0"
     guidetolerance="10"
     gridtolerance="10"
     objecttolerance="10"
     borderopacity="1"
     bordercolor="#666666"
     pagecolor="#ffffff" />
  <path
     d="M 610,655 V -55 Q 610,-80 592.5,-97.5 575,-115 550,-115 H 90 Q 65,-115 47.5,-97.5 30,-80 30,-55 v 710 q 0,25 17.5,42.5 Q 65,715 90,715 h 460 q 25,0 42.5,-17.5 Q 610,680 610,655 Z m -60,30 H 90 Q 77,685 68.5,676.5 60,668 60,655 V -55 Q 60,-68 68.5,-76.5 77,-85 90,-85 h 460 q 13,0 21.5,8.5 8.5,8.5 8.5,21.5 v 710 q 0,13 -8.5,21.5 Q 563,685 550,685 Z"
     style="stroke:none;stroke-opacity:1;fill:#999999;fill-opacity:1"
     id="path870" />
  <path
     d="m 445,8 v 88 q -5,-1 -15,-1 -10,0 -15,1 V 8 q 5,-1 15,-1 10,0 15,1 z m -30,234 v -88 q 5,1 15,1 10,0 15,-1 v 88 q -5,1 -15,1 -10,0 -15,-1 z m 0,-136 q 3,0 8,-0.5 5,-0.5 7,-0.5 2,0 7,0.5 5,0.5 8,0.5 v 38 q -3,0 -8,0.5 -5,0.5 -7,0.5 -2,0 -7,-0.5 -5,-0.5 -8,-0.5 z m -45,136 q 0,21 60,21 60,0 60,-21 0,-17 -25,-30 v -63 q 25,-8 25,-24 0,-16 -25,-24 V 38 q 25,-13 25,-30 0,-21 -60,-21 -60,0 -60,21 0,17 25,30 v 63 q -25,8 -25,24 0,16 25,24 v 63 q -25,13 -25,30 z m 75,116 v 88 q -5,-1 -15,-1 -10,0 -15,1 v -88 q 5,-1 15,-1 10,0 15,1 z m -30,234 v -88 q 5,1 15,1 10,0 15,-1 v 88 q -5,1 -15,1 -10,0 -15,-1 z m 0,-136 q 3,0 8,-0.5 5,-0.5 7,-0.5 2,0 7,0.5 5,0.5 8,0.5 v 38 q -3,0 -8,0.5 -5,0.5 -7,0.5 -2,0 -7,-0.5 -5,-0.5 -8,-0.5 z m -45,136 q 0,21 60,21 60,0 60,-21 0,-17 -25,-30 v -63 q 25,-8 25,-24 0,-16 -25,-24 v -63 q 25,-13 25,-30 0,-21 -60,-21 -60,0 -60,21 0,17 25,30 v 63 q -25,8 -25,24 0,16 25,24 v 63 q -25,13 -25,30 z M 225,8 v 88 q -5,-1 -15,-1 -10,0 -15,1 V 8 q 5,-1 15,-1 10,0 15,1 z m -30,234 v -88 q 5,1 15,1 10,0 15,-1 v 88 q -5,1 -15,1 -10,0 -15,-1 z m 0,-136 q 3,0 8,-0.5 5,-0.5 7,-0.5 2,0 7,0.5 5,0.5 8,0.5 v 38 q -3,0 -8,0.5 -5,0.5 -7,0.5 -2,0 -7,-0.5 -5,-0.5 -8,-0.5 z m -45,136 q 0,21 60,21 60,0 60,-21 0,-17 -25,-30 v -63 q 25,-8 25,-24 0,-16 -25,-24 V 38 q 25,-13 25,-30 0,-21 -60,-21 -60,0 -60,21 0,17 25,30 v 63 q -25,8 -25,24 0,16 25,24 v 63 q -25,13 -25,30 z m 75,116 v 88 q -5,-1 -15,-1 -10,0 -15,1 v -88 q 5,-1 15,-1 10,0 15,1 z m -30,234 v -88 q 5,1 15,1 10,0 15,-1 v 88 q -5,1 -15,1 -10,0 -15,-1 z m 0,-136 q 3,0 8,-0.5 5,-0.5 7,-0.5 2,0 7,0.5 5,0.5 8,0.5 v 38 q -3,0 -8,0.5 -5,0.5 -7,0.5 -2,0 -7,-0.5 -5,-0.5 -8,-0.5 z m -45,136 q 0,21 60,21 60,0 60,-21 0,-17 -25,-30 v -63 q 25,-8 25,-24 0,-16 -25,-24 v -63 q 25,-13 25,-30 0,-21 -60,-21 -60,0 -60,21 0,17 25,30 v 63 q -25,8 -25,24 0,16 25,24 v 63 q -25,13 -25,30 z"
     style="stroke:none;stroke-opacity:1;fill:#006600;fill-opacity:1"
     id="path2" />
</svg>
