<svg xmlns="http://www.w3.org/2000/svg" viewBox="30 -115 580 830"><g><path d="M480 8v88q-5 -1 -15 -1t-15 1v-88q5 -1 15 -1t15 1zM450 242v-88q5 1 15 1t15 -1v88q-5 1 -15 1t-15 -1zM450 106q2 0 7 -0.5t8 -0.5t8 0.5t7 0.5v38q-2 0 -7 0.5t-8 0.5t-8 -0.5t-7 -0.5v-38zM405 242q0 21 60 21t60 -21q0 -17 -25 -30v-63q25 -8 25 -24t-25 -24v-63 q25 -13 25 -30q0 -21 -60 -21t-60 21q0 17 25 30v63q-25 8 -25 24t25 24v63q-25 13 -25 30zM480 358v88q-5 -1 -15 -1t-15 1v-88q5 -1 15 -1t15 1zM450 592v-88q5 1 15 1t15 -1v88q-5 1 -15 1t-15 -1zM450 456q2 0 7 -0.5t8 -0.5t8 0.5t7 0.5v38q-2 0 -7 0.5t-8 0.5t-8 -0.5 t-7 -0.5v-38zM405 592q0 21 60 21t60 -21q0 -17 -25 -30v-63q25 -8 25 -24t-25 -24v-63q25 -13 25 -30q0 -21 -60 -21t-60 21q0 17 25 30v63q-25 8 -25 24t25 24v63q-25 13 -25 30zM190 8v88q-5 -1 -15 -1t-15 1v-88q5 -1 15 -1t15 1zM160 242v-88q5 1 15 1t15 -1v88 q-5 1 -15 1t-15 -1zM160 106q2 0 7 -0.5t8 -0.5t8 0.5t7 0.5v38q-2 0 -7 0.5t-8 0.5t-8 -0.5t-7 -0.5v-38zM115 242q0 21 60 21t60 -21q0 -17 -25 -30v-63q25 -8 25 -24t-25 -24v-63q25 -13 25 -30q0 -21 -60 -21t-60 21q0 17 25 30v63q-25 8 -25 24t25 24v63q-25 13 -25 30 zM190 358v88q-5 -1 -15 -1t-15 1v-88q5 -1 15 -1t15 1zM160 592v-88q5 1 15 1t15 -1v88q-5 1 -15 1t-15 -1zM160 456q2 0 7 -0.5t8 -0.5t8 0.5t7 0.5v38q-2 0 -7 0.5t-8 0.5t-8 -0.5t-7 -0.5v-38zM115 592q0 21 60 21t60 -21q0 -17 -25 -30v-63q25 -8 25 -24t-25 -24v-63 q25 -13 25 -30q0 -21 -60 -21t-60 21q0 17 25 30v63q-25 8 -25 24t25 24v63q-25 13 -25 30zM335 183v88q-5 -1 -15 -1t-15 1v-88q5 -1 15 -1t15 1zM305 417v-88q5 1 15 1t15 -1v88q-5 1 -15 1t-15 -1zM305 281q3 0 8 -0.5t7 -0.5t7 0.5t8 0.5v38q-3 0 -8 0.5t-7 0.5t-7 -0.5 t-8 -0.5v-38zM260 417q0 21 60 21t60 -21q0 -17 -25 -30v-63q25 -8 25 -24t-25 -24v-63q25 -13 25 -30q0 -21 -60 -21t-60 21q0 17 25 30v63q-25 8 -25 24t25 24v63q-25 13 -25 30zM610 655v-710q0 -25 -17.5 -42.5t-42.5 -17.5h-460q-25 0 -42.5 17.5t-17.5 42.5v710 q0 25 17.5 42.5t42.5 17.5h460q25 0 42.5 -17.5t17.5 -42.5zM550 685h-460q-13 0 -21.5 -8.5t-8.5 -21.5v-710q0 -13 8.5 -21.5t21.5 -8.5h460q13 0 21.5 8.5t8.5 21.5v710q0 13 -8.5 21.5t-21.5 8.5z" /></g></svg>