<svg xmlns="http://www.w3.org/2000/svg" viewBox="30 -115 580 830"><g><path d="M492 213v58q-5 -1 -15 -1t-15 1v-58q5 -1 15 -1t15 1zM462 387v-58q5 1 15 1t15 -1v58q-5 1 -15 1t-15 -1zM462 281q2 0 7 -0.5t8 -0.5t8 0.5t7 0.5v38q-2 0 -7 0.5t-8 0.5t-8 -0.5t-7 -0.5v-38zM419 387q0 21 58 21t58 -21q0 -17 -25 -30v-33q25 -8 25 -24t-25 -24v-33 q25 -13 25 -30q0 -21 -58 -21t-58 21q0 17 25 30v33q-25 8 -25 24t25 24v33q-25 13 -25 30zM492 -29v58q-5 -1 -15 -1t-15 1v-58q5 -1 15 -1t15 1zM462 145v-58q5 1 15 1t15 -1v58q-5 1 -15 1t-15 -1zM462 39q2 0 7 -0.5t8 -0.5t8 0.5t7 0.5v38q-2 0 -7 0.5t-8 0.5t-8 -0.5 t-7 -0.5v-38zM419 145q0 21 58 21t58 -21q0 -17 -25 -30v-33q25 -8 25 -24t-25 -24v-33q25 -13 25 -30q0 -21 -58 -21t-58 21q0 17 25 30v33q-25 8 -25 24t25 24v33q-25 13 -25 30zM178 213v58q-5 -1 -15 -1t-15 1v-58q5 -1 15 -1t15 1zM148 387v-58q5 1 15 1t15 -1v58 q-5 1 -15 1t-15 -1zM148 281q2 0 7 -0.5t8 -0.5t8 0.5t7 0.5v38q-2 0 -7 0.5t-8 0.5t-8 -0.5t-7 -0.5v-38zM105 387q0 21 58 21t58 -21q0 -17 -25 -30v-33q25 -8 25 -24t-25 -24v-33q25 -13 25 -30q0 -21 -58 -21t-58 21q0 17 25 30v33q-25 8 -25 24t25 24v33q-25 13 -25 30 zM178 -29v58q-5 -1 -15 -1t-15 1v-58q5 -1 15 -1t15 1zM148 145v-58q5 1 15 1t15 -1v58q-5 1 -15 1t-15 -1zM148 39q2 0 7 -0.5t8 -0.5t8 0.5t7 0.5v38q-2 0 -7 0.5t-8 0.5t-8 -0.5t-7 -0.5v-38zM105 145q0 21 58 21t58 -21q0 -17 -25 -30v-33q25 -8 25 -24t-25 -24v-33 q25 -13 25 -30q0 -21 -58 -21t-58 21q0 17 25 30v33q-25 8 -25 24t25 24v33q-25 13 -25 30zM335 213v58q-5 -1 -15 -1t-15 1v-58q5 -1 15 -1t15 1zM305 387v-58q5 1 15 1t15 -1v58q-5 1 -15 1t-15 -1zM305 281q3 0 8 -0.5t7 -0.5t7 0.5t8 0.5v38q-3 0 -8 0.5t-7 0.5t-7 -0.5 t-8 -0.5v-38zM262 387q0 21 58 21t58 -21q0 -17 -25 -30v-33q25 -8 25 -24t-25 -24v-33q25 -13 25 -30q0 -21 -58 -21t-58 21q0 17 25 30v33q-25 8 -25 24t25 24v33q-25 13 -25 30zM335 -29v58q-5 -1 -15 -1t-15 1v-58q5 -1 15 -1t15 1zM305 145v-58q5 1 15 1t15 -1v58 q-5 1 -15 1t-15 -1zM305 39q3 0 8 -0.5t7 -0.5t7 0.5t8 0.5v38q-3 0 -8 0.5t-7 0.5t-7 -0.5t-8 -0.5v-38zM262 145q0 21 58 21t58 -21q0 -17 -25 -30v-33q25 -8 25 -24t-25 -24v-33q25 -13 25 -30q0 -21 -58 -21t-58 21q0 17 25 30v33q-25 8 -25 24t25 24v33q-25 13 -25 30z M335 455v58q-5 -1 -15 -1t-15 1v-58q5 -1 15 -1t15 1zM305 629v-58q5 1 15 1t15 -1v58q-5 1 -15 1t-15 -1zM305 523q3 0 8 -0.5t7 -0.5t7 0.5t8 0.5v38q-3 0 -8 0.5t-7 0.5t-7 -0.5t-8 -0.5v-38zM262 629q0 21 58 21t58 -21q0 -17 -25 -30v-33q25 -8 25 -24t-25 -24v-33 q25 -13 25 -30q0 -21 -58 -21t-58 21q0 17 25 30v33q-25 8 -25 24t25 24v33q-25 13 -25 30zM610 655v-710q0 -25 -17.5 -42.5t-42.5 -17.5h-460q-25 0 -42.5 17.5t-17.5 42.5v710q0 25 17.5 42.5t42.5 17.5h460q25 0 42.5 -17.5t17.5 -42.5zM550 685h-460q-13 0 -21.5 -8.5 t-8.5 -21.5v-710q0 -13 8.5 -21.5t21.5 -8.5h460q13 0 21.5 8.5t8.5 21.5v710q0 13 -8.5 21.5t-21.5 8.5z" /></g></svg>