<svg xmlns="http://www.w3.org/2000/svg" viewBox="30 -115 580 830"><g><path d="M264 103q-16 -7 -25 2q-10 10 -2 25l-37 37v-18q25 -8 25 -24t-25 -24v-63q25 -13 25 -30q0 -21 -60 -21t-60 21q0 17 25 30v63q-25 8 -25 24t25 24v63q-25 13 -25 30q0 21 60 21t60 -21q0 -9 -10 -19l57 -57q16 7 25 -2q10 -10 2 -25l21 -21l21 21q-7 15 2 24 q10 10 25 3l57 57q-10 10 -10 19q0 21 60 21t60 -21q0 -17 -25 -30v-63q25 -8 25 -24t-25 -24v-63q25 -13 25 -30q0 -21 -60 -21t-60 21q0 17 25 30v63q-25 8 -25 24t25 24v18l-37 -37q8 -15 -2 -25q-9 -9 -25 -2l-23 -22q8 -11 8 -22q0 -19 -17 -19q-14 0 -24 9 q-10 -9 -24 -9q-17 0 -17 19q0 11 8 22zM380 157q8 -5 14 -14l46 45v24l-3 2zM387 136q-1 1 -2.5 3t-3.5 4t-4 3.5t-4 3.5l-17 -17q2 -2 3.5 -4t3.5 -4l3 -3t4 -3zM246 143q6 9 14 14l-57 57l-3 -2v-24zM267 150q-2 -2 -4 -3.5t-4 -3.5q-2 -1 -2.5 -2t-1.5 -2.5t-2 -2.5 l17 -17q2 1 4 3l3 3q2 2 3.5 4t3.5 4zM150 242v-88q5 1 15 1t15 -1v88q-5 1 -15 1t-15 -1zM180 8v88q-5 -1 -15 -1t-15 1v-88q5 -1 15 -1t15 1zM180 144q-2 0 -7 0.5t-8 0.5t-8 -0.5t-7 -0.5v-38q2 0 7 -0.5t8 -0.5t8 0.5t7 0.5v38zM460 242v-88q5 1 15 1t15 -1v88 q-5 1 -15 1t-15 -1zM490 8v88q-5 -1 -15 -1t-15 1v-88q5 -1 15 -1t15 1zM490 144q-2 0 -7 0.5t-8 0.5t-8 -0.5t-7 -0.5v-38q2 0 7 -0.5t8 -0.5t8 0.5t7 0.5v38zM291 126q-8 -10 -14 -14l33 -34v-22q6 -2 10 -2t10 2v22l33 34q-6 4 -14 14l-29 -29zM376 497q16 7 25 -2 q10 -10 2 -25l37 -37v18q-25 8 -25 24t25 24v63q-25 13 -25 30q0 21 60 21t60 -21q0 -17 -25 -30v-63q25 -8 25 -24t-25 -24v-63q25 -13 25 -30q0 -21 -60 -21t-60 21q0 9 10 19l-57 57q-16 -7 -25 2q-10 10 -2 25l-21 21l-21 -21q7 -15 -2 -24q-10 -10 -25 -3l-57 -57 q10 -10 10 -19q0 -21 -60 -21t-60 21q0 17 25 30v63q-25 8 -25 24t25 24v63q-25 13 -25 30q0 21 60 21t60 -21q0 -17 -25 -30v-63q25 -8 25 -24t-25 -24v-18l37 37q-8 15 2 25q9 9 25 2l23 22q-8 11 -8 22q0 19 17 19q14 0 24 -9q10 9 24 9q17 0 17 -19q0 -11 -8 -22z M260 443q-8 5 -14 14l-46 -45v-24l3 -2zM253 464q1 -1 2.5 -3t3.5 -4t4 -3.5t4 -3.5l17 17q-2 2 -3.5 4t-3.5 4l-3 3t-4 3zM394 457q-6 -9 -14 -14l57 -57l3 2v24zM373 450q2 2 4 3.5t4 3.5q2 1 2.5 2t1.5 2.5t2 2.5l-17 17q-2 -1 -4 -3l-3 -3q-2 -2 -3.5 -4t-3.5 -4z M490 358v88q-5 -1 -15 -1t-15 1v-88q5 -1 15 -1t15 1zM460 592v-88q5 1 15 1t15 -1v88q-5 1 -15 1t-15 -1zM460 456q2 0 7 -0.5t8 -0.5t8 0.5t7 0.5v38q-2 0 -7 0.5t-8 0.5t-8 -0.5t-7 -0.5v-38zM180 358v88q-5 -1 -15 -1t-15 1v-88q5 -1 15 -1t15 1zM150 592v-88q5 1 15 1 t15 -1v88q-5 1 -15 1t-15 -1zM150 456q2 0 7 -0.5t8 -0.5t8 0.5t7 0.5v38q-2 0 -7 0.5t-8 0.5t-8 -0.5t-7 -0.5v-38zM610 655v-710q0 -25 -17.5 -42.5t-42.5 -17.5h-460q-25 0 -42.5 17.5t-17.5 42.5v710q0 25 17.5 42.5t42.5 17.5h460q25 0 42.5 -17.5t17.5 -42.5zM550 685 h-460q-13 0 -21.5 -8.5t-8.5 -21.5v-710q0 -13 8.5 -21.5t21.5 -8.5h460q13 0 21.5 8.5t8.5 21.5v710q0 13 -8.5 21.5t-21.5 8.5zM349 474q8 10 14 14l-33 34v22q-6 2 -10 2t-10 -2v-22l-33 -34q6 -4 14 -14l29 29z" /></g></svg>