<?xml version="1.0" encoding="UTF-8" standalone="no"?>
<svg
   xmlns:dc="http://purl.org/dc/elements/1.1/"
   xmlns:cc="http://creativecommons.org/ns#"
   xmlns:rdf="http://www.w3.org/1999/02/22-rdf-syntax-ns#"
   xmlns:svg="http://www.w3.org/2000/svg"
   xmlns="http://www.w3.org/2000/svg"
   xmlns:sodipodi="http://sodipodi.sourceforge.net/DTD/sodipodi-0.dtd"
   xmlns:inkscape="http://www.inkscape.org/namespaces/inkscape"
   inkscape:version="1.0rc1 (09960d6f05, 2020-04-09)"
   sodipodi:docname="b-7.svg"
   id="svg6"
   version="1.1"
   viewBox="30 -115 580 830">
  <metadata
     id="metadata12">
    <rdf:RDF>
      <cc:Work
         rdf:about="">
        <dc:format>image/svg+xml</dc:format>
        <dc:type
           rdf:resource="http://purl.org/dc/dcmitype/StillImage" />
      </cc:Work>
    </rdf:RDF>
  </metadata>
  <defs
     id="defs10" />
  <sodipodi:namedview
     inkscape:current-layer="svg6"
     inkscape:window-maximized="1"
     inkscape:window-y="-6"
     inkscape:window-x="-6"
     inkscape:cy="415"
     inkscape:cx="290"
     inkscape:zoom="0.29879518"
     showgrid="false"
     id="namedview8"
     inkscape:window-height="698"
     inkscape:window-width="1080"
     inkscape:pageshadow="2"
     inkscape:pageopacity="0"
     guidetolerance="10"
     gridtolerance="10"
     objecttolerance="10"
     borderopacity="1"
     bordercolor="#666666"
     pagecolor="#ffffff" />
  <path
     d="M 610,655 V -55 Q 610,-80 592.5,-97.5 575,-115 550,-115 H 90 Q 65,-115 47.5,-97.5 30,-80 30,-55 v 710 q 0,25 17.5,42.5 Q 65,715 90,715 h 460 q 25,0 42.5,-17.5 Q 610,680 610,655 Z m -60,30 H 90 Q 77,685 68.5,676.5 60,668 60,655 V -55 Q 60,-68 68.5,-76.5 77,-85 90,-85 h 460 q 13,0 21.5,8.5 8.5,8.5 8.5,21.5 v 710 q 0,13 -8.5,21.5 Q 563,685 550,685 Z"
     style="fill:#999999;fill-opacity:1;stroke:none;stroke-opacity:1"
     id="path884" />
  <path
     d="m 264,103 q -16,-7 -25,2 -10,10 -2,25 l -37,37 v -18 q 25,-8 25,-24 0,-16 -25,-24 V 38 q 25,-13 25,-30 0,-21 -60,-21 -60,0 -60,21 0,17 25,30 v 63 q -25,8 -25,24 0,16 25,24 v 63 q -25,13 -25,30 0,21 60,21 60,0 60,-21 0,-9 -10,-19 l 57,-57 q 16,7 25,-2 10,-10 2,-25 l 21,-21 21,21 q -7,15 2,24 10,10 25,3 l 57,57 q -10,10 -10,19 0,21 60,21 60,0 60,-21 0,-17 -25,-30 v -63 q 25,-8 25,-24 0,-16 -25,-24 V 38 q 25,-13 25,-30 0,-21 -60,-21 -60,0 -60,21 0,17 25,30 v 63 q -25,8 -25,24 0,16 25,24 v 18 l -37,-37 q 8,-15 -2,-25 -9,-9 -25,-2 L 353,81 q 8,-11 8,-22 0,-19 -17,-19 -14,0 -24,9 -10,-9 -24,-9 -17,0 -17,19 0,11 8,22 z m 116,54 q 8,-5 14,-14 l 46,45 v 24 l -3,2 z m 7,-21 q -1,1 -2.5,3 -1.5,2 -3.5,4 -2,2 -4,3.5 -2,1.5 -4,3.5 l -17,-17 q 2,-2 3.5,-4 1.5,-2 3.5,-4 l 3,-3 q 0,0 4,-3 z m -141,7 q 6,9 14,14 l -57,57 -3,-2 v -24 z m 21,7 q -2,-2 -4,-3.5 -2,-1.5 -4,-3.5 -2,-1 -2.5,-2 -0.5,-1 -1.5,-2.5 -1,-1.5 -2,-2.5 l 17,-17 q 2,1 4,3 l 3,3 q 2,2 3.5,4 1.5,2 3.5,4 z m -117,92 v -88 q 5,1 15,1 10,0 15,-1 v 88 q -5,1 -15,1 -10,0 -15,-1 z M 180,8 v 88 q -5,-1 -15,-1 -10,0 -15,1 V 8 q 5,-1 15,-1 10,0 15,1 z m 0,136 q -2,0 -7,0.5 -5,0.5 -8,0.5 -3,0 -8,-0.5 -5,-0.5 -7,-0.5 v -38 q 2,0 7,-0.5 5,-0.5 8,-0.5 3,0 8,0.5 5,0.5 7,0.5 z m 280,98 v -88 q 5,1 15,1 10,0 15,-1 v 88 q -5,1 -15,1 -10,0 -15,-1 z M 490,8 v 88 q -5,-1 -15,-1 -10,0 -15,1 V 8 q 5,-1 15,-1 10,0 15,1 z m 0,136 q -2,0 -7,0.5 -5,0.5 -8,0.5 -3,0 -8,-0.5 -5,-0.5 -7,-0.5 v -38 q 2,0 7,-0.5 5,-0.5 8,-0.5 3,0 8,0.5 5,0.5 7,0.5 z M 291,126 q -8,-10 -14,-14 L 310,78 V 56 q 6,-2 10,-2 4,0 10,2 v 22 l 33,34 q -6,4 -14,14 L 320,97 Z m 85,371 q 16,7 25,-2 10,-10 2,-25 l 37,-37 v 18 q -25,8 -25,24 0,16 25,24 v 63 q -25,13 -25,30 0,21 60,21 60,0 60,-21 0,-17 -25,-30 v -63 q 25,-8 25,-24 0,-16 -25,-24 v -63 q 25,-13 25,-30 0,-21 -60,-21 -60,0 -60,21 0,9 10,19 l -57,57 q -16,-7 -25,2 -10,10 -2,25 l -21,21 -21,-21 q 7,-15 -2,-24 -10,-10 -25,-3 l -57,-57 q 10,-10 10,-19 0,-21 -60,-21 -60,0 -60,21 0,17 25,30 v 63 q -25,8 -25,24 0,16 25,24 v 63 q -25,13 -25,30 0,21 60,21 60,0 60,-21 0,-17 -25,-30 v -63 q 25,-8 25,-24 0,-16 -25,-24 v -18 l 37,37 q -8,15 2,25 9,9 25,2 l 23,22 q -8,11 -8,22 0,19 17,19 14,0 24,-9 10,9 24,9 17,0 17,-19 0,-11 -8,-22 z M 260,443 q -8,5 -14,14 l -46,-45 v -24 l 3,-2 z m -7,21 q 1,-1 2.5,-3 1.5,-2 3.5,-4 2,-2 4,-3.5 2,-1.5 4,-3.5 l 17,17 q -2,2 -3.5,4 -1.5,2 -3.5,4 l -3,3 q 0,0 -4,3 z m 141,-7 q -6,-9 -14,-14 l 57,-57 3,2 v 24 z m -21,-7 q 2,2 4,3.5 2,1.5 4,3.5 2,1 2.5,2 0.5,1 1.5,2.5 1,1.5 2,2.5 l -17,17 q -2,-1 -4,-3 l -3,-3 q -2,-2 -3.5,-4 -1.5,-2 -3.5,-4 z m 117,-92 v 88 q -5,-1 -15,-1 -10,0 -15,1 v -88 q 5,-1 15,-1 10,0 15,1 z m -30,234 v -88 q 5,1 15,1 10,0 15,-1 v 88 q -5,1 -15,1 -10,0 -15,-1 z m 0,-136 q 2,0 7,-0.5 5,-0.5 8,-0.5 3,0 8,0.5 5,0.5 7,0.5 v 38 q -2,0 -7,0.5 -5,0.5 -8,0.5 -3,0 -8,-0.5 -5,-0.5 -7,-0.5 z M 180,358 v 88 q -5,-1 -15,-1 -10,0 -15,1 v -88 q 5,-1 15,-1 10,0 15,1 z m -30,234 v -88 q 5,1 15,1 10,0 15,-1 v 88 q -5,1 -15,1 -10,0 -15,-1 z m 0,-136 q 2,0 7,-0.5 5,-0.5 8,-0.5 3,0 8,0.5 5,0.5 7,0.5 v 38 q -2,0 -7,0.5 -5,0.5 -8,0.5 -3,0 -8,-0.5 -5,-0.5 -7,-0.5 z m 199,18 q 8,10 14,14 l -33,34 v 22 q -6,2 -10,2 -4,0 -10,-2 v -22 l -33,-34 q 6,-4 14,-14 l 29,29 z"
     style="fill:#006600;fill-opacity:1;stroke:none;stroke-opacity:1"
     id="path2" />
</svg>
