<?xml version="1.0" encoding="UTF-8" standalone="no"?>
<svg
   xmlns:dc="http://purl.org/dc/elements/1.1/"
   xmlns:cc="http://creativecommons.org/ns#"
   xmlns:rdf="http://www.w3.org/1999/02/22-rdf-syntax-ns#"
   xmlns:svg="http://www.w3.org/2000/svg"
   xmlns="http://www.w3.org/2000/svg"
   xmlns:sodipodi="http://sodipodi.sourceforge.net/DTD/sodipodi-0.dtd"
   xmlns:inkscape="http://www.inkscape.org/namespaces/inkscape"
   inkscape:version="1.0rc1 (09960d6f05, 2020-04-09)"
   sodipodi:docname="c-0.svg"
   id="svg1284"
   version="1.1"
   viewBox="30 -115 580 830">
  <metadata
     id="metadata1290">
    <rdf:RDF>
      <cc:Work
         rdf:about="">
        <dc:format>image/svg+xml</dc:format>
        <dc:type
           rdf:resource="http://purl.org/dc/dcmitype/StillImage" />
      </cc:Work>
    </rdf:RDF>
  </metadata>
  <defs
     id="defs1288" />
  <sodipodi:namedview
     inkscape:current-layer="svg1284"
     inkscape:window-maximized="1"
     inkscape:window-y="-6"
     inkscape:window-x="-6"
     inkscape:cy="415"
     inkscape:cx="290"
     inkscape:zoom="0.56144578"
     showgrid="false"
     id="namedview1286"
     inkscape:window-height="698"
     inkscape:window-width="1080"
     inkscape:pageshadow="2"
     inkscape:pageopacity="0"
     guidetolerance="10"
     gridtolerance="10"
     objecttolerance="10"
     borderopacity="1"
     bordercolor="#666666"
     pagecolor="#ffffff" />
  <path
     style="fill:#000000;stroke:none;stroke-opacity:1;fill-opacity:1"
     id="path1317"
     d="m 205,448 q -59,0 -59,15 0,9 16,9 4,0 14,-0.5 10,-0.5 16,-0.5 54,0 124.5,30 70.5,30 84.5,30 16,0 32.5,-4.5 16.5,-4.5 24.5,-4.5 22,0 29,-6 7,-6 7,-21 0,-10 -5.5,-19 -5.5,-9 -14.5,-9 -1,0 -26,10 -25,10 -60,10 -47,0 -98.5,-19.5 Q 238,448 205,448 Z" />
  <path
     d="m 391,86 q 0,-2 1.5,-9 1.5,-7 1.5,-12 0,-5 -3,-11 -19,-13 -37,-13 -1,1 -3,6 -2,5 -3,7 -6,-2 -13.5,-7 -7.5,-5 -12.5,-7 4,-6 20,-12.5 16,-6.5 25,-6.5 8,0 19,7.5 11,7.5 15,9.5 5,2 19,3 14,1 22,5.5 8,4.5 8,15.5 0,8 -21,15.5 Q 408,85 391,86 Z M 307,74 q 0,-16 5,-16 4,0 8.5,1.5 4.5,1.5 12,4.5 7.5,3 14.5,5 -2,11 -1,16 -6,-1 -39,-11 z M 247,56 q 4,-10 7,-16 14,3 32,11 -5,6 -5,16 z m 59,63 V 92 q 22,4 39,11 0,17 -1,26 -5,-2 -17.5,-5 -12.5,-3 -20.5,-5 z m -2,40 v -22 q 14,1 40,9 0,15 1,23 -22,-7 -41,-10 z m 3,38 q 0,-5 -1.5,-11 -1.5,-6 -1.5,-10 10,2 23,4.5 13,2.5 19,3.5 0,5 0.5,12 0.5,7 0.5,11 -9,-2 -21,-5.5 -12,-3.5 -19,-4.5 z m -25,-42 q -6,-1 -13,-2 -6,0 -6.5,-1 -0.5,-1 -0.5,-4 v -4 q 0,0 0.5,-7 0.5,-7 0.5,-7 5,0 19,2 z m -20,33 v -18 h 2 l 2,-1 18,3 q 0,8 2,20 z m 20,-74 q -4,0 -16,-5 l -4,-8 q -5,-8 -9,-12 -15,9 -15,58 0,38 4,55 37,6 81.5,18 44.5,12 55.5,12 21,0 21,-14 l -7,-26 q -7,-26 -7,-54 0,-16 2,-34 19,-1 41,-6 22,-5 45.5,-20 Q 498,63 498,43 498,26 485,17 472,8 452,8 447,8 429.5,1.5 412,-5 403,-5 390,-5 355.5,8.5 321,22 307,31 q -4,-1 -10,-6 -6,-5 -9,-5 -5,0 -32,8 0,-1 -0.5,-6 -0.5,-5 -1,-7.5 -0.5,-2.5 -1,-6 Q 253,5 251,3 q -2,-2 -5,-2 -3,0 -6.5,4 -3.5,4 -6,10.5 -2.5,6.5 -5,12.5 -2.5,6 -4.5,13 -2,7 -3,9 h -12 q -19,0 -35,6 -16,6 -16,17 0,1 0.5,3 0.5,2 0.5,4 9,0 25,-2 16,-2 25,-2 h 4 q -1,8 -4,22.5 -3,14.5 -5,24 -2,9.5 -2,14.5 0,2 4,6 12,-2 17.5,-11.5 5.5,-9.5 9.5,-26.5 4,-17 10,-28 14,0 38,8 0,3 0.5,14 0.5,11 0.5,15 z m 125,137 q -30,0 -89,-17.5 -59,-17.5 -78,-17.5 -60,0 -78,22 18,11 27,11 10,0 30.5,-5 20.5,-5 34.5,-5 20,0 27,4 7,4 7,18 0,3 -5.5,4.5 -5.5,1.5 -7.5,4.5 0,4 1.5,6 1.5,2 5,5.5 3.5,3.5 5.5,7.5 2,3 7.5,12.5 5.5,9.5 9,13 3.5,3.5 8.5,3.5 7,0 7,-10 0,-8 -1.5,-16.5 -1.5,-8.5 -5,-19 Q 309,262 308,256 q 2,-5 7,-5 6,0 17.5,23 11.5,23 11.5,33 0,6 -6.5,11.5 -6.5,5.5 -8.5,8.5 8,18 35,28 20,-7 20,-37 0,-10 -8.5,-24 -8.5,-14 -9.5,-26 8,1 22,4 14,3 28,4.5 14,1.5 30,1.5 32,0 37,-7 -7,-14 -22,-21 -13,1 -54,1 z"
     style="fill:#cc0000;stroke:none;stroke-opacity:1;fill-opacity:1"
     id="path1297" />
  <path
     d="M 610,655 V -55 Q 610,-80 592.5,-97.5 575,-115 550,-115 H 90 Q 65,-115 47.5,-97.5 30,-80 30,-55 v 710 q 0,25 17.5,42.5 Q 65,715 90,715 h 460 q 25,0 42.5,-17.5 Q 610,680 610,655 Z m -60,30 H 90 Q 77,685 68.5,676.5 60,668 60,655 V -55 Q 60,-68 68.5,-76.5 77,-85 90,-85 h 460 q 13,0 21.5,8.5 8.5,8.5 8.5,21.5 v 710 q 0,13 -8.5,21.5 Q 563,685 550,685 Z"
     style="fill:#999999;stroke:none;stroke-opacity:1;fill-rule:evenodd;fill-opacity:1"
     id="path1280" />
</svg>
