<?xml version="1.0" encoding="UTF-8" standalone="no"?>
<svg
   xmlns:dc="http://purl.org/dc/elements/1.1/"
   xmlns:cc="http://creativecommons.org/ns#"
   xmlns:rdf="http://www.w3.org/1999/02/22-rdf-syntax-ns#"
   xmlns:svg="http://www.w3.org/2000/svg"
   xmlns="http://www.w3.org/2000/svg"
   xmlns:sodipodi="http://sodipodi.sourceforge.net/DTD/sodipodi-0.dtd"
   xmlns:inkscape="http://www.inkscape.org/namespaces/inkscape"
   inkscape:version="1.0rc1 (09960d6f05, 2020-04-09)"
   sodipodi:docname="d-0.svg"
   id="svg6"
   version="1.1"
   viewBox="30 -115 580 830">
  <metadata
     id="metadata12">
    <rdf:RDF>
      <cc:Work
         rdf:about="">
        <dc:format>image/svg+xml</dc:format>
        <dc:type
           rdf:resource="http://purl.org/dc/dcmitype/StillImage" />
      </cc:Work>
    </rdf:RDF>
  </metadata>
  <defs
     id="defs10" />
  <sodipodi:namedview
     inkscape:current-layer="svg6"
     inkscape:window-maximized="1"
     inkscape:window-y="-6"
     inkscape:window-x="-6"
     inkscape:cy="395.99695"
     inkscape:cx="298.30181"
     inkscape:zoom="0.84512039"
     showgrid="false"
     id="namedview8"
     inkscape:window-height="698"
     inkscape:window-width="1080"
     inkscape:pageshadow="2"
     inkscape:pageopacity="0"
     guidetolerance="10"
     gridtolerance="10"
     objecttolerance="10"
     borderopacity="1"
     bordercolor="#666666"
     pagecolor="#ffffff" />
  <path
     style="stroke:none;stroke-opacity:1;fill:#cc0000;fill-opacity:1"
     id="path894"
     d="m 315,300 q 0,5 5,5 5,0 5,-5 0,-5 -5,-5 -5,0 -5,5 z" />
  <path
     d="M 550,685 H 90 Q 77,685 68.5,676.5 60,668 60,655 V -55 Q 60,-68 68.5,-76.5 77,-85 90,-85 h 460 q 13,0 21.5,8.5 8.5,8.5 8.5,21.5 v 710 q 0,13 -8.5,21.5 Q 563,685 550,685 Z m 60,-30 V -55 Q 610,-80 592.5,-97.5 575,-115 550,-115 H 90 Q 65,-115 47.5,-97.5 30,-80 30,-55 v 710 q 0,25 17.5,42.5 Q 65,715 90,715 h 460 q 25,0 42.5,-17.5 Q 610,680 610,655 Z"
     style="stroke:none;stroke-opacity:1;fill:#999999;fill-opacity:1"
     id="path890" />
  <path
     d="m 301,344 q 8,4 19,4 11,0 19,-4 l 1,-8 -16,-23 q -1,1 -4,1 -3,0 -4,-1 l -16,23 z m -21,-53 -8,4 v 5 q 0,18 13,31 l 7,-1 17,-21 q -3,-5 -3,-9 z m 88,4 -8,-4 -26,9 q 0,4 -3,9 l 17,21 7,1 q 13,-13 13,-31 z m -53,-36 -5,-6 q -19,4 -31,23 l 4,7 26,8 q 3,-3 6,-4 z m 10,0 v 28 q 3,1 6,4 l 26,-8 4,-7 q -12,-19 -31,-23 z"
     style="stroke:none;stroke-opacity:1;fill:#cc0000;fill-opacity:1"
     id="path846" />
  <path
     d="M 168,300 Q 168,237 212.5,192.5 257,148 320,148 383,148 427.5,192.5 472,237 472,300 472,363 427.5,407.5 383,452 320,452 257,452 212.5,407.5 168,363 168,300 Z m -52,0 q 0,85 59.5,144.5 Q 235,504 320,504 405,504 464.5,444.5 524,385 524,300 524,215 464.5,155.5 405,96 320,96 235,96 175.5,155.5 116,215 116,300 Z m 296,128 7,25 18,-30 17,17 -3,11 q -15,12 -35,24 l -21,-8 -9,-21 3,-5 q 11,-5 23,-13 z m -184,0 q 6,4 11,7 5,3 6.5,3.5 1.5,0.5 3.5,1.5 2,1 2.5,2 0.5,1 2.5,4 l -9,21 -21,8 q -18,-10 -36,-26 l -2,-9 17,-17 18,30 z m 97,35 7,-7 q 24,-2 44,-10 l 8,20 -10,26 -27,6 9,-27 -31,15 z m -17,-7 7,7 v 23 l -31,-15 9,27 -27,-6 -10,-26 8,-20 q 20,8 44,10 z m 204,-210 6,27 -27,-9 15,31 h -23 l -7,-7 q -2,-24 -10,-44 l 20,-8 z m -26,118 -20,-8 q 8,-20 10,-44 l 7,-7 h 23 l -15,31 27,-9 -6,27 z m -43,-181 17,-17 11,3 q 12,15 24,35 l -8,21 -21,9 -5,-3 q -5,-11 -13,-23 l 25,-7 z m 5,209 q 4,-6 7,-11 3,-5 3.5,-6.5 0.5,-1.5 1.5,-3.5 1,-2 2,-2.5 1,-0.5 4,-2.5 l 21,9 8,21 q -10,18 -26,36 l -9,2 -17,-17 30,-18 z m -320,-38 -6,-27 27,9 -15,-31 h 23 l 7,7 q 2,24 10,44 l -20,8 z m 26,-118 20,8 q -8,20 -10,44 l -7,7 h -23 l 15,-31 -27,9 6,-27 z m 43,181 -17,17 -11,-3 q -12,-15 -24,-35 l 8,-21 21,-9 5,3 q 5,11 13,23 l -25,7 z m -5,-209 q -4,6 -7,11 -3,5 -3.5,6.5 -0.5,1.5 -1.5,3.5 -1,2 -2,2.5 -1,0.5 -4,2.5 l -21,-9 -8,-21 q 10,-18 26,-36 l 9,-2 17,17 -30,18 z m 74,-100 27,-6 -9,27 31,-15 v 23 l -7,7 q -24,2 -44,10 l -8,-20 z m 118,26 -8,20 q -20,-8 -44,-10 l -7,-7 v -23 l 31,15 -9,-27 27,6 z m -181,43 -17,-17 3,-11 q 15,-12 35,-24 l 21,8 9,21 -3,5 q -11,5 -23,13 l -7,-25 z m 209,-5 q -6,-4 -11,-7 -5,-3 -6.5,-3.5 -1.5,-0.5 -3.5,-1.5 -2,-1 -2.5,-2 -0.5,-1 -2.5,-4 l 9,-21 21,-8 q 18,10 36,26 l 2,9 -17,17 -18,-30 z"
     style="stroke:none;stroke-opacity:1;fill:#000099;fill-opacity:1"
     id="path844" />
  <path
     d="m 178,300 q 0,59 41.5,100.5 Q 261,442 320,442 379,442 420.5,400.5 462,359 462,300 462,241 420.5,199.5 379,158 320,158 261,158 219.5,199.5 178,241 178,300 Z m 190,112 -22,-56 q 4,-2 6,-4 l 21,33 4,-3 -21,-32 q 2,-2 6,-4 l 43,42 -6,30 z m 40,-27 -42,-43 q 2,-4 4,-6 l 32,21 3,-4 -33,-21 q 2,-2 4,-6 l 56,22 6,31 z m 26,-40 -56,-23 q 2,-6 2,-8 l 37,8 1,-5 -37,-7 q 1,-2 1,-8 h 60 l 17,26 z m 8,-47 h -60 q 0,-6 -1,-8 l 37,-7 -1,-5 -37,8 q 0,-2 -2,-8 l 56,-23 25,17 z m -10,-46 -56,22 q -2,-4 -4,-6 l 33,-21 -3,-4 -32,21 q -2,-2 -4,-6 l 42,-43 30,6 z m -27,-40 -43,42 q -4,-2 -6,-4 l 21,-32 -4,-3 -21,33 q -2,-2 -6,-4 l 22,-56 31,-6 z m -40,-26 -23,56 q -6,-2 -8,-2 l 8,-37 -5,-1 -7,37 q -2,-1 -8,-1 v -60 l 26,-17 z m -47,-8 v 60 q -6,0 -8,1 l -7,-37 -5,1 8,37 q -2,0 -8,2 l -23,-56 17,-25 z m -46,10 22,56 q -4,2 -6,4 l -21,-33 -4,3 21,32 q -2,2 -6,4 l -43,-42 6,-30 z m -40,27 42,43 q -2,4 -4,6 l -32,-21 -3,4 33,21 q -2,2 -4,6 l -56,-22 -6,-31 z m -26,40 56,23 q -2,6 -2,8 l -37,-8 -1,5 37,7 q -1,2 -1,8 h -60 l -17,-26 z m -8,47 h 60 q 0,6 1,8 l -37,7 1,5 37,-8 q 0,2 2,8 l -56,23 -25,-17 z m 10,46 56,-22 q 2,4 4,6 l -33,21 3,4 32,-21 q 2,2 4,6 l -42,43 -30,-6 z m 27,40 43,-42 q 4,2 6,4 l -21,32 4,3 21,-33 q 2,2 6,4 l -22,56 -31,6 z m 40,26 23,-56 q 6,2 8,2 l -8,37 5,1 7,-37 q 2,1 8,1 v 60 l -26,17 z m 47,8 v -60 q 6,0 8,-1 l 7,37 5,-1 -8,-37 q 2,0 8,-2 l 23,56 -17,25 z M 263,300 q 0,-23 17,-40 17,-17 40,-17 23,0 40,17 17,17 17,40 0,23 -17,40 -17,17 -40,17 -23,0 -40,-17 -17,-17 -17,-40 z"
     style="stroke:none;stroke-opacity:1;fill:#cc0000;fill-opacity:1"
     id="path842" />
  <path
     d="m 91,300 q 0,94 67.5,161.5 Q 226,529 320,529 414,529 481.5,461.5 549,394 549,300 549,206 481.5,138.5 414,71 320,71 226,71 158.5,138.5 91,206 91,300 Z m 15,0 q 0,-88 63,-151 63,-63 151,-63 88,0 151,63 63,63 63,151 0,88 -63,151 -63,63 -151,63 -88,0 -151,-63 -63,-63 -63,-151 z"
     style="stroke:none;stroke-opacity:1;fill:#000099;fill-opacity:1"
     id="path2" />
</svg>
