<svg xmlns="http://www.w3.org/2000/svg" viewBox="30 -115 580 830"><g><path d="M91 300q0 94 67.5 161.5t161.5 67.5t161.5 -67.5t67.5 -161.5t-67.5 -161.5t-161.5 -67.5t-161.5 67.5t-67.5 161.5zM106 300q0 -88 63 -151t151 -63t151 63t63 151t-63 151t-151 63t-151 -63t-63 -151zM178 300q0 59 41.5 100.5t100.5 41.5t100.5 -41.5t41.5 -100.5 t-41.5 -100.5t-100.5 -41.5t-100.5 41.5t-41.5 100.5zM168 300q0 -63 44.5 -107.5t107.5 -44.5t107.5 44.5t44.5 107.5t-44.5 107.5t-107.5 44.5t-107.5 -44.5t-44.5 -107.5zM301 344q8 4 19 4t19 -4l1 -8l-16 -23q-1 1 -4 1t-4 -1l-16 23zM280 291l-8 4v5q0 18 13 31l7 -1 l17 -21q-3 -5 -3 -9zM368 295l-8 -4l-26 9q0 4 -3 9l17 21l7 1q13 -13 13 -31v-5zM315 259l-5 -6q-19 4 -31 23l4 7l26 8q3 -3 6 -4v-28zM325 259v28q3 1 6 4l26 -8l4 -7q-12 -19 -31 -23zM368 412l-22 -56q4 -2 6 -4l21 33l4 -3l-21 -32q2 -2 6 -4l43 42l-6 30zM408 385 l-42 -43q2 -4 4 -6l32 21l3 -4l-33 -21q2 -2 4 -6l56 22l6 31zM434 345l-56 -23q2 -6 2 -8l37 8l1 -5l-37 -7q1 -2 1 -8h60l17 26zM442 298h-60q0 -6 -1 -8l37 -7l-1 -5l-37 8q0 -2 -2 -8l56 -23l25 17zM432 252l-56 22q-2 -4 -4 -6l33 -21l-3 -4l-32 21q-2 -2 -4 -6l42 -43 l30 6zM405 212l-43 42q-4 -2 -6 -4l21 -32l-4 -3l-21 33q-2 -2 -6 -4l22 -56l31 -6zM365 186l-23 56q-6 -2 -8 -2l8 -37l-5 -1l-7 37q-2 -1 -8 -1v-60l26 -17zM318 178v60q-6 0 -8 1l-7 -37l-5 1l8 37q-2 0 -8 2l-23 -56l17 -25zM272 188l22 56q-4 2 -6 4l-21 -33l-4 3 l21 32q-2 2 -6 4l-43 -42l6 -30zM232 215l42 43q-2 4 -4 6l-32 -21l-3 4l33 21q-2 2 -4 6l-56 -22l-6 -31zM206 255l56 23q-2 6 -2 8l-37 -8l-1 5l37 7q-1 2 -1 8h-60l-17 -26zM198 302h60q0 6 1 8l-37 7l1 5l37 -8q0 2 2 8l-56 23l-25 -17zM208 348l56 -22q2 4 4 6l-33 21 l3 4l32 -21q2 2 4 6l-42 43l-30 -6zM235 388l43 -42q4 2 6 4l-21 32l4 3l21 -33q2 2 6 4l-22 56l-31 6zM275 414l23 -56q6 2 8 2l-8 37l5 1l7 -37q2 1 8 1v60l-26 17zM322 422v-60q6 0 8 -1l7 37l5 -1l-8 -37q2 0 8 -2l23 56l-17 25zM263 300q0 -23 17 -40t40 -17t40 17 t17 40t-17 40t-40 17t-40 -17t-17 -40zM550 685h-460q-13 0 -21.5 -8.5t-8.5 -21.5v-710q0 -13 8.5 -21.5t21.5 -8.5h460q13 0 21.5 8.5t8.5 21.5v710q0 13 -8.5 21.5t-21.5 8.5zM610 655v-710q0 -25 -17.5 -42.5t-42.5 -17.5h-460q-25 0 -42.5 17.5t-17.5 42.5v710 q0 25 17.5 42.5t42.5 17.5h460q25 0 42.5 -17.5t17.5 -42.5zM315 300q0 5 5 5t5 -5t-5 -5t-5 5zM116 300q0 85 59.5 144.5t144.5 59.5t144.5 -59.5t59.5 -144.5t-59.5 -144.5t-144.5 -59.5t-144.5 59.5t-59.5 144.5zM412 428l7 25l18 -30l17 17l-3 11q-15 12 -35 24l-21 -8 l-9 -21l3 -5q11 -5 23 -13zM228 428q6 4 11 7t6.5 3.5t3.5 1.5t2.5 2t2.5 4l-9 21l-21 8q-18 -10 -36 -26l-2 -9l17 -17l18 30zM325 463l7 -7q24 -2 44 -10l8 20l-10 26l-27 6l9 -27l-31 15v-23zM308 456l7 7v23l-31 -15l9 27l-27 -6l-10 -26l8 -20q20 8 44 10zM512 246 l6 27l-27 -9l15 31h-23l-7 -7q-2 -24 -10 -44l20 -8zM486 364l-20 -8q8 -20 10 -44l7 -7h23l-15 31l27 -9l-6 27zM443 183l17 -17l11 3q12 15 24 35l-8 21l-21 9l-5 -3q-5 -11 -13 -23l25 -7zM448 392q4 -6 7 -11t3.5 -6.5t1.5 -3.5t2 -2.5t4 -2.5l21 9l8 21q-10 18 -26 36 l-9 2l-17 -17l30 -18zM128 354l-6 -27l27 9l-15 -31h23l7 7q2 24 10 44l-20 8zM154 236l20 8q-8 20 -10 44l-7 7h-23l15 -31l-27 9l6 -27zM197 417l-17 17l-11 -3q-12 -15 -24 -35l8 -21l21 -9l5 3q5 11 13 23l-25 7zM192 208q-4 6 -7 11t-3.5 6.5t-1.5 3.5t-2 2.5t-4 2.5 l-21 -9l-8 -21q10 -18 26 -36l9 -2l17 17l-30 18zM266 108l27 -6l-9 27l31 -15v23l-7 7q-24 2 -44 10l-8 -20zM384 134l-8 20q-20 -8 -44 -10l-7 -7v-23l31 15l-9 -27l27 6zM203 177l-17 -17l3 -11q15 -12 35 -24l21 8l9 21l-3 5q-11 5 -23 13l-7 -25zM412 172q-6 -4 -11 -7 t-6.5 -3.5t-3.5 -1.5t-2.5 -2t-2.5 -4l9 -21l21 -8q18 10 36 26l2 9l-17 17l-18 -30z" /></g></svg>