<svg xmlns="http://www.w3.org/2000/svg" viewBox="30 -115 580 830"><g><path d="M90 -85h460q13 0 21.5 8.5t8.5 21.5v710q0 13 -8.5 21.5t-21.5 8.5h-460q-13 0 -21.5 -8.5t-8.5 -21.5v-710q0 -13 8.5 -21.5t21.5 -8.5zM30 -55v710q0 25 17.5 42.5t42.5 17.5h460q25 0 42.5 -17.5t17.5 -42.5v-710q0 -25 -17.5 -42.5t-42.5 -17.5h-460 q-25 0 -42.5 17.5t-17.5 42.5zM306 140q0 14 14 14t14 -14t-14 -14t-14 14zM290 140q0 -13 8.5 -21.5t21.5 -8.5t21.5 8.5t8.5 21.5t-8.5 21.5t-21.5 8.5t-21.5 -8.5t-8.5 -21.5zM416 140q0 -40 -28 -68t-68 -28t-68 28t-28 68t28 68t68 28t68 -28t28 -68zM428 140 q0 45 -31.5 76.5t-76.5 31.5t-76.5 -31.5t-31.5 -76.5t31.5 -76.5t76.5 -31.5t76.5 31.5t31.5 76.5zM446 140q0 -52 -37 -89t-89 -37t-89 37t-37 89t37 89t89 37t89 -37t37 -89zM388 144v-8h-32q0 -2 -1 -5.5t-2 -5.5l33 -19l21 10q3 12 3 24t-3 24l-21 10l-33 -19 q1 -2 2 -5.5t1 -5.5h32zM357 83l-6 -4l-16 28q-2 -1 -5.5 -2t-5.5 -1v-38l19 -13q25 6 41 24l-1 23l-34 19q-3 -5 -8 -8zM351 201l6 -4l-16 -28q5 -3 8 -8l34 19l1 23q-16 18 -41 24l-19 -13v-38q2 0 5.5 -1t5.5 -2zM316 176v38l-19 13q-25 -6 -41 -24l1 -23l34 -19q3 5 8 8 l-16 28l6 4l16 -28q2 1 5.5 2t5.5 1zM316 104q-2 0 -5.5 1t-5.5 2l-16 -28l-6 4l16 28q-5 3 -8 8l-34 -19l-1 -23q16 -18 41 -24l19 13v38zM284 144q0 2 1 5.5t2 5.5l-33 19l-21 -10q-3 -12 -3 -24t3 -24l21 -10l33 19q-1 2 -2 5.5t-1 5.5h-32v8h32zM306 460q0 14 14 14 t14 -14t-14 -14t-14 14zM290 460q0 -13 8.5 -21.5t21.5 -8.5t21.5 8.5t8.5 21.5t-8.5 21.5t-21.5 8.5t-21.5 -8.5t-8.5 -21.5zM416 460q0 -40 -28 -68t-68 -28t-68 28t-28 68t28 68t68 28t68 -28t28 -68zM428 460q0 45 -31.5 76.5t-76.5 31.5t-76.5 -31.5t-31.5 -76.5 t31.5 -76.5t76.5 -31.5t76.5 31.5t31.5 76.5zM446 460q0 -52 -37 -89t-89 -37t-89 37t-37 89t37 89t89 37t89 -37t37 -89zM388 464v-8h-32q0 -2 -1 -5.5t-2 -5.5l33 -19l21 10q3 12 3 24t-3 24l-21 10l-33 -19q1 -2 2 -5.5t1 -5.5h32zM357 403l-6 -4l-16 28q-2 -1 -5.5 -2 t-5.5 -1v-38l19 -13q25 6 41 24l-1 23l-34 19q-3 -5 -8 -8zM351 521l6 -4l-16 -28q5 -3 8 -8l34 19l1 23q-16 18 -41 24l-19 -13v-38q2 0 5.5 -1t5.5 -2zM316 496v38l-19 13q-25 -6 -41 -24l1 -23l34 -19q3 5 8 8l-16 28l6 4l16 -28q2 1 5.5 2t5.5 1zM316 424q-2 0 -5.5 1 t-5.5 2l-16 -28l-6 4l16 28q-5 3 -8 8l-34 -19l-1 -23q16 -18 41 -24l19 13v38zM284 464q0 2 1 5.5t2 5.5l-33 19l-21 -10q-3 -12 -3 -24t3 -24l21 -10l33 19q-1 2 -2 5.5t-1 5.5h-32v8h32z" /></g></svg>