<?xml version="1.0" encoding="UTF-8" standalone="no"?>
<svg
   xmlns:dc="http://purl.org/dc/elements/1.1/"
   xmlns:cc="http://creativecommons.org/ns#"
   xmlns:rdf="http://www.w3.org/1999/02/22-rdf-syntax-ns#"
   xmlns:svg="http://www.w3.org/2000/svg"
   xmlns="http://www.w3.org/2000/svg"
   xmlns:sodipodi="http://sodipodi.sourceforge.net/DTD/sodipodi-0.dtd"
   xmlns:inkscape="http://www.inkscape.org/namespaces/inkscape"
   inkscape:version="1.0rc1 (09960d6f05, 2020-04-09)"
   sodipodi:docname="d-1.svg"
   id="svg6"
   version="1.1"
   viewBox="30 -115 580 830">
  <metadata
     id="metadata12">
    <rdf:RDF>
      <cc:Work
         rdf:about="">
        <dc:format>image/svg+xml</dc:format>
        <dc:type
           rdf:resource="http://purl.org/dc/dcmitype/StillImage" />
      </cc:Work>
    </rdf:RDF>
  </metadata>
  <defs
     id="defs10" />
  <sodipodi:namedview
     inkscape:current-layer="svg6"
     inkscape:window-maximized="1"
     inkscape:window-y="-6"
     inkscape:window-x="-6"
     inkscape:cy="415"
     inkscape:cx="290"
     inkscape:zoom="0.29879518"
     showgrid="false"
     id="namedview8"
     inkscape:window-height="698"
     inkscape:window-width="1080"
     inkscape:pageshadow="2"
     inkscape:pageopacity="0"
     guidetolerance="10"
     gridtolerance="10"
     objecttolerance="10"
     borderopacity="1"
     bordercolor="#666666"
     pagecolor="#ffffff" />
  <path
     d="m 306,140 q 0,14 14,14 14,0 14,-14 0,-14 -14,-14 -14,0 -14,14 z m -16,0 q 0,-13 8.5,-21.5 8.5,-8.5 21.5,-8.5 13,0 21.5,8.5 8.5,8.5 8.5,21.5 0,13 -8.5,21.5 Q 333,170 320,170 307,170 298.5,161.5 290,153 290,140 Z m 126,0 q 0,-40 -28,-68 -28,-28 -68,-28 -40,0 -68,28 -28,28 -28,68 0,40 28,68 28,28 68,28 40,0 68,-28 28,-28 28,-68 z m 12,0 q 0,45 -31.5,76.5 Q 365,248 320,248 275,248 243.5,216.5 212,185 212,140 212,95 243.5,63.5 275,32 320,32 365,32 396.5,63.5 428,95 428,140 Z m 18,0 q 0,-52 -37,-89 -37,-37 -89,-37 -52,0 -89,37 -37,37 -37,89 0,52 37,89 37,37 89,37 52,0 89,-37 37,-37 37,-89 z m -58,4 v -8 h -32 q 0,-2 -1,-5.5 -1,-3.5 -2,-5.5 l 33,-19 21,10 q 3,12 3,24 0,12 -3,24 l -21,10 -33,-19 q 1,-2 2,-5.5 1,-3.5 1,-5.5 z m -31,-61 -6,-4 -16,28 q -2,-1 -5.5,-2 -3.5,-1 -5.5,-1 V 66 l 19,-13 q 25,6 41,24 l -1,23 -34,19 q -3,-5 -8,-8 z m -6,118 6,-4 -16,-28 q 5,-3 8,-8 l 34,19 1,23 q -16,18 -41,24 l -19,-13 v -38 q 2,0 5.5,-1 3.5,-1 5.5,-2 z m -35,-25 v 38 l -19,13 q -25,-6 -41,-24 l 1,-23 34,-19 q 3,5 8,8 l -16,28 6,4 16,-28 q 2,1 5.5,2 3.5,1 5.5,1 z m 0,-72 q -2,0 -5.5,1 -3.5,1 -5.5,2 l -16,-28 -6,4 16,28 q -5,3 -8,8 l -34,-19 -1,-23 q 16,-18 41,-24 l 19,13 z m -32,40 q 0,2 1,5.5 1,3.5 2,5.5 l -33,19 -21,-10 q -3,-12 -3,-24 0,-12 3,-24 l 21,-10 33,19 q -1,2 -2,5.5 -1,3.5 -1,5.5 h -32 v 8 z m 22,316 q 0,14 14,14 14,0 14,-14 0,-14 -14,-14 -14,0 -14,14 z m -16,0 q 0,-13 8.5,-21.5 8.5,-8.5 21.5,-8.5 13,0 21.5,8.5 8.5,8.5 8.5,21.5 0,13 -8.5,21.5 Q 333,490 320,490 307,490 298.5,481.5 290,473 290,460 Z m 126,0 q 0,-40 -28,-68 -28,-28 -68,-28 -40,0 -68,28 -28,28 -28,68 0,40 28,68 28,28 68,28 40,0 68,-28 28,-28 28,-68 z m 12,0 q 0,45 -31.5,76.5 Q 365,568 320,568 275,568 243.5,536.5 212,505 212,460 212,415 243.5,383.5 275,352 320,352 q 45,0 76.5,31.5 Q 428,415 428,460 Z m 18,0 q 0,-52 -37,-89 -37,-37 -89,-37 -52,0 -89,37 -37,37 -37,89 0,52 37,89 37,37 89,37 52,0 89,-37 37,-37 37,-89 z m -58,4 v -8 h -32 q 0,-2 -1,-5.5 -1,-3.5 -2,-5.5 l 33,-19 21,10 q 3,12 3,24 0,12 -3,24 l -21,10 -33,-19 q 1,-2 2,-5.5 1,-3.5 1,-5.5 z m -31,-61 -6,-4 -16,28 q -2,-1 -5.5,-2 -3.5,-1 -5.5,-1 v -38 l 19,-13 q 25,6 41,24 l -1,23 -34,19 q -3,-5 -8,-8 z m -6,118 6,-4 -16,-28 q 5,-3 8,-8 l 34,19 1,23 q -16,18 -41,24 l -19,-13 v -38 q 2,0 5.5,-1 3.5,-1 5.5,-2 z m -35,-25 v 38 l -19,13 q -25,-6 -41,-24 l 1,-23 34,-19 q 3,5 8,8 l -16,28 6,4 16,-28 q 2,1 5.5,2 3.5,1 5.5,1 z m 0,-72 q -2,0 -5.5,1 -3.5,1 -5.5,2 l -16,-28 -6,4 16,28 q -5,3 -8,8 l -34,-19 -1,-23 q 16,-18 41,-24 l 19,13 z m -32,40 q 0,2 1,5.5 1,3.5 2,5.5 l -33,19 -21,-10 q -3,-12 -3,-24 0,-12 3,-24 l 21,-10 33,19 q -1,2 -2,5.5 -1,3.5 -1,5.5 h -32 v 8 z"
     style="fill:#000099;fill-opacity:1;stroke:none;stroke-opacity:1"
     id="path842" />
  <path
     d="m 90,-85 h 460 q 13,0 21.5,8.5 8.5,8.5 8.5,21.5 v 710 q 0,13 -8.5,21.5 Q 563,685 550,685 H 90 Q 77,685 68.5,676.5 60,668 60,655 V -55 Q 60,-68 68.5,-76.5 77,-85 90,-85 Z m -60,30 v 710 q 0,25 17.5,42.5 Q 65,715 90,715 h 460 q 25,0 42.5,-17.5 Q 610,680 610,655 V -55 Q 610,-80 592.5,-97.5 575,-115 550,-115 H 90 Q 65,-115 47.5,-97.5 30,-80 30,-55 Z"
     style="fill:#999999;fill-opacity:1;stroke:none;stroke-opacity:1"
     id="path2" />
</svg>
