<svg xmlns="http://www.w3.org/2000/svg" viewBox="30 -115 580 830"><g><path d="M280 75q0 33 -23.5 56.5t-56.5 23.5t-56.5 -23.5t-23.5 -56.5t23.5 -56.5t56.5 -23.5t56.5 23.5t23.5 56.5zM295 75q0 -39 -28 -67t-67 -28t-67 28t-28 67t28 67t67 28t67 -28t28 -67zM270 75q0 -29 -20.5 -49.5t-49.5 -20.5t-49.5 20.5t-20.5 49.5t20.5 49.5t49.5 20.5 t49.5 -20.5t20.5 -49.5zM220 75q0 8 -6 14t-14 6t-14 -6t-6 -14t6 -14t14 -6t14 6t6 14zM210 75q0 -10 -10 -10t-10 10t10 10t10 -10zM229 60q-15 -13 -24 -17v-20l9 -6q25 6 37 26l-4 11zM186 17l9 6v20l-3 3q-11 3 -17 12l-4 2l-18 -6l-4 -11q12 -20 37 -26zM170 74 q0 6 1 10t3 8l3 6l-11 16h-12q-14 -17 -14 -39v-4l9 -7l19 6zM178 131l-4 -11l11 -16h4q4 1 11 1t11 -1h4l11 16l-4 11q-12 4 -22 4t-22 -4zM230 74l2 -4l19 -6l9 7v4q0 22 -14 39h-12l-11 -16l3 -6t3 -8t1 -10zM520 525q0 33 -23.5 56.5t-56.5 23.5t-56.5 -23.5 t-23.5 -56.5t23.5 -56.5t56.5 -23.5t56.5 23.5t23.5 56.5zM535 525q0 -39 -28 -67t-67 -28t-67 28t-28 67t28 67t67 28t67 -28t28 -67zM510 525q0 -29 -20.5 -49.5t-49.5 -20.5t-49.5 20.5t-20.5 49.5t20.5 49.5t49.5 20.5t49.5 -20.5t20.5 -49.5zM460 525q0 8 -6 14t-14 6 t-14 -6t-6 -14t6 -14t14 -6t14 6t6 14zM450 525q0 -10 -10 -10t-10 10t10 10t10 -10zM469 510q-15 -13 -24 -17v-20l9 -6q25 6 37 26l-4 11zM426 467l9 6v20l-3 3q-11 3 -17 12l-4 2l-18 -6l-4 -11q12 -20 37 -26zM410 524q0 6 1 10t3 8l3 6l-11 16h-12q-14 -17 -14 -39v-4 l9 -7l19 6zM418 581l-4 -11l11 -16h4q4 1 11 1t11 -1h4l11 16l-4 11q-12 4 -22 4t-22 -4zM470 524l2 -4l19 -6l9 7v4q0 22 -14 39h-12l-11 -16l3 -6t3 -8t1 -10zM520 75q0 33 -23.5 56.5t-56.5 23.5t-56.5 -23.5t-23.5 -56.5t23.5 -56.5t56.5 -23.5t56.5 23.5t23.5 56.5z M535 75q0 -39 -28 -67t-67 -28t-67 28t-28 67t28 67t67 28t67 -28t28 -67zM510 75q0 -29 -20.5 -49.5t-49.5 -20.5t-49.5 20.5t-20.5 49.5t20.5 49.5t49.5 20.5t49.5 -20.5t20.5 -49.5zM460 75q0 8 -6 14t-14 6t-14 -6t-6 -14t6 -14t14 -6t14 6t6 14zM450 75q0 -10 -10 -10 t-10 10t10 10t10 -10zM469 60q-15 -13 -24 -17v-20l9 -6q25 6 37 26l-4 11zM426 17l9 6v20l-3 3q-11 3 -17 12l-4 2l-18 -6l-4 -11q12 -20 37 -26zM410 74q0 6 1 10t3 8l3 6l-11 16h-12q-14 -17 -14 -39v-4l9 -7l19 6zM418 131l-4 -11l11 -16h4q4 1 11 1t11 -1h4l11 16 l-4 11q-12 4 -22 4t-22 -4zM470 74l2 -4l19 -6l9 7v4q0 22 -14 39h-12l-11 -16l3 -6t3 -8t1 -10zM280 525q0 33 -23.5 56.5t-56.5 23.5t-56.5 -23.5t-23.5 -56.5t23.5 -56.5t56.5 -23.5t56.5 23.5t23.5 56.5zM295 525q0 -39 -28 -67t-67 -28t-67 28t-28 67t28 67t67 28 t67 -28t28 -67zM270 525q0 -29 -20.5 -49.5t-49.5 -20.5t-49.5 20.5t-20.5 49.5t20.5 49.5t49.5 20.5t49.5 -20.5t20.5 -49.5zM220 525q0 8 -6 14t-14 6t-14 -6t-6 -14t6 -14t14 -6t14 6t6 14zM210 525q0 -10 -10 -10t-10 10t10 10t10 -10zM229 510q-15 -13 -24 -17v-20 l9 -6q25 6 37 26l-4 11zM186 467l9 6v20l-3 3q-11 3 -17 12l-4 2l-18 -6l-4 -11q12 -20 37 -26zM170 524q0 6 1 10t3 8l3 6l-11 16h-12q-14 -17 -14 -39v-4l9 -7l19 6zM178 581l-4 -11l11 -16h4q4 1 11 1t11 -1h4l11 16l-4 11q-12 4 -22 4t-22 -4zM230 524l2 -4l19 -6l9 7v4 q0 22 -14 39h-12l-11 -16l3 -6t3 -8t1 -10zM610 655v-710q0 -25 -17.5 -42.5t-42.5 -17.5h-460q-25 0 -42.5 17.5t-17.5 42.5v710q0 25 17.5 42.5t42.5 17.5h460q25 0 42.5 -17.5t17.5 -42.5zM550 685h-460q-13 0 -21.5 -8.5t-8.5 -21.5v-710q0 -13 8.5 -21.5t21.5 -8.5h460 q13 0 21.5 8.5t8.5 21.5v710q0 13 -8.5 21.5t-21.5 8.5z" /></g></svg>