<svg xmlns="http://www.w3.org/2000/svg" viewBox="30 -115 580 830"><g><path d="M427 49q-12 -5 -25 -18v-10l8 -5q17 4 29 21l-3 9zM267 49q-12 -5 -25 -18v-10l8 -5q17 4 29 21l-3 9zM427 209q-12 -5 -25 -18v-10l8 -5q17 4 29 21l-3 9zM267 209q-12 -5 -25 -18v-10l8 -5q17 4 29 21l-3 9zM427 529q-12 -5 -25 -18v-10l8 -5q17 4 29 21l-3 9zM267 529 q-12 -5 -25 -18v-10l8 -5q17 4 29 21l-3 9zM395 60q0 5 5 5t5 -5t-5 -5t-5 5zM385 60q0 -6 4.5 -10.5t10.5 -4.5t10.5 4.5t4.5 10.5t-4.5 10.5t-10.5 4.5t-10.5 -4.5t-4.5 -10.5zM330 60q0 -29 20.5 -49.5t49.5 -20.5t49.5 20.5t20.5 49.5t-20.5 49.5t-49.5 20.5 t-49.5 -20.5t-20.5 -49.5zM345 60q0 22 16.5 38.5t38.5 16.5t38.5 -16.5t16.5 -38.5t-16.5 -38.5t-38.5 -16.5t-38.5 16.5t-16.5 38.5zM393 36q-8 3 -14 10l-6 3l-9 -3l-3 -9q12 -17 29 -21l8 5v10zM419 82q1 -6 3.5 -11t2.5 -11l4 -7l9 -3l7 6v4q0 17 -11 30h-9zM408 84 l7 1l6 8l-3 8q-8 4 -18 4t-18 -4l-3 -8l6 -8l7 -1q2 1 8 1t8 -1zM362 50q10 2 13 10q0 6 2.5 11t3.5 11l-6 8h-9q-11 -13 -11 -30v-4zM235 60q0 5 5 5t5 -5t-5 -5t-5 5zM225 60q0 -6 4.5 -10.5t10.5 -4.5t10.5 4.5t4.5 10.5t-4.5 10.5t-10.5 4.5t-10.5 -4.5t-4.5 -10.5z M170 60q0 -29 20.5 -49.5t49.5 -20.5t49.5 20.5t20.5 49.5t-20.5 49.5t-49.5 20.5t-49.5 -20.5t-20.5 -49.5zM185 60q0 22 16.5 38.5t38.5 16.5t38.5 -16.5t16.5 -38.5t-16.5 -38.5t-38.5 -16.5t-38.5 16.5t-16.5 38.5zM233 36q-8 3 -14 10l-6 3l-9 -3l-3 -9q12 -17 29 -21 l8 5v10zM259 82q1 -6 3.5 -11t2.5 -11l4 -7l9 -3l7 6v4q0 17 -11 30h-9zM248 84l7 1l6 8l-3 8q-8 4 -18 4t-18 -4l-3 -8l6 -8l7 -1q2 1 8 1t8 -1zM202 50q10 2 13 10q0 6 2.5 11t3.5 11l-6 8h-9q-11 -13 -11 -30v-4zM395 220q0 5 5 5t5 -5t-5 -5t-5 5zM385 220 q0 -6 4.5 -10.5t10.5 -4.5t10.5 4.5t4.5 10.5t-4.5 10.5t-10.5 4.5t-10.5 -4.5t-4.5 -10.5zM330 220q0 -29 20.5 -49.5t49.5 -20.5t49.5 20.5t20.5 49.5t-20.5 49.5t-49.5 20.5t-49.5 -20.5t-20.5 -49.5zM345 220q0 22 16.5 38.5t38.5 16.5t38.5 -16.5t16.5 -38.5 t-16.5 -38.5t-38.5 -16.5t-38.5 16.5t-16.5 38.5zM393 196q-8 3 -14 10l-6 3l-9 -3l-3 -9q12 -17 29 -21l8 5v10zM419 242q1 -6 3.5 -11t2.5 -11l4 -7l9 -3l7 6v4q0 17 -11 30h-9zM408 244l7 1l6 8l-3 8q-8 4 -18 4t-18 -4l-3 -8l6 -8l7 -1q2 1 8 1t8 -1zM362 210 q10 2 13 10q0 6 2.5 11t3.5 11l-6 8h-9q-11 -13 -11 -30v-4zM235 220q0 5 5 5t5 -5t-5 -5t-5 5zM225 220q0 -6 4.5 -10.5t10.5 -4.5t10.5 4.5t4.5 10.5t-4.5 10.5t-10.5 4.5t-10.5 -4.5t-4.5 -10.5zM170 220q0 -29 20.5 -49.5t49.5 -20.5t49.5 20.5t20.5 49.5t-20.5 49.5 t-49.5 20.5t-49.5 -20.5t-20.5 -49.5zM185 220q0 22 16.5 38.5t38.5 16.5t38.5 -16.5t16.5 -38.5t-16.5 -38.5t-38.5 -16.5t-38.5 16.5t-16.5 38.5zM233 196q-8 3 -14 10l-6 3l-9 -3l-3 -9q12 -17 29 -21l8 5v10zM259 242q1 -6 3.5 -11t2.5 -11l4 -7l9 -3l7 6v4q0 17 -11 30 h-9zM248 244l7 1l6 8l-3 8q-8 4 -18 4t-18 -4l-3 -8l6 -8l7 -1q2 1 8 1t8 -1zM202 210q10 2 13 10q0 6 2.5 11t3.5 11l-6 8h-9q-11 -13 -11 -30v-4zM155 220q0 35 25 60t60 25q27 0 49 -15.5t31 -40.5q9 25 31 40.5t49 15.5q35 0 60 -25t25 -60q0 -27 -15.5 -49t-40.5 -31 q25 -9 40.5 -31t15.5 -49q0 -35 -25 -60t-60 -25q-27 0 -49 15.5t-31 40.5q-9 -25 -31 -40.5t-49 -15.5q-35 0 -60 25t-25 60q0 27 15.5 49t40.5 31q-25 9 -40.5 31t-15.5 49zM269 140q37 -14 51 -51q14 37 51 51q-37 14 -51 51q-14 -37 -51 -51zM202 530q10 2 13 10 q0 6 2.5 11t3.5 11l-6 8h-9q-11 -13 -11 -30v-4zM248 564l7 1l6 8l-3 8q-8 4 -18 4t-18 -4l-3 -8l6 -8l7 -1q2 1 8 1t8 -1zM259 562q1 -6 3.5 -11t2.5 -11l4 -7l9 -3l7 6v4q0 17 -11 30h-9zM233 516q-8 3 -14 10l-6 3l-9 -3l-3 -9q12 -17 29 -21l8 5v10zM185 540 q0 22 16.5 38.5t38.5 16.5t38.5 -16.5t16.5 -38.5t-16.5 -38.5t-38.5 -16.5t-38.5 16.5t-16.5 38.5zM170 540q0 -29 20.5 -49.5t49.5 -20.5t49.5 20.5t20.5 49.5t-20.5 49.5t-49.5 20.5t-49.5 -20.5t-20.5 -49.5zM225 540q0 -6 4.5 -10.5t10.5 -4.5t10.5 4.5t4.5 10.5 t-4.5 10.5t-10.5 4.5t-10.5 -4.5t-4.5 -10.5zM235 540q0 5 5 5t5 -5t-5 -5t-5 5zM362 530q10 2 13 10q0 6 2.5 11t3.5 11l-6 8h-9q-11 -13 -11 -30v-4zM408 564l7 1l6 8l-3 8q-8 4 -18 4t-18 -4l-3 -8l6 -8l7 -1q2 1 8 1t8 -1zM419 562q1 -6 3.5 -11t2.5 -11l4 -7l9 -3l7 6 v4q0 17 -11 30h-9zM393 516q-8 3 -14 10l-6 3l-9 -3l-3 -9q12 -17 29 -21l8 5v10zM345 540q0 22 16.5 38.5t38.5 16.5t38.5 -16.5t16.5 -38.5t-16.5 -38.5t-38.5 -16.5t-38.5 16.5t-16.5 38.5zM330 540q0 -29 20.5 -49.5t49.5 -20.5t49.5 20.5t20.5 49.5t-20.5 49.5 t-49.5 20.5t-49.5 -20.5t-20.5 -49.5zM385 540q0 -6 4.5 -10.5t10.5 -4.5t10.5 4.5t4.5 10.5t-4.5 10.5t-10.5 4.5t-10.5 -4.5t-4.5 -10.5zM395 540q0 5 5 5t5 -5t-5 -5t-5 5zM155 540q0 35 25 60t60 25q27 0 49 -15.5t31 -40.5q9 25 31 40.5t49 15.5q35 0 60 -25t25 -60 t-25 -60t-60 -25q-27 0 -49 15.5t-31 40.5q-9 -25 -31 -40.5t-49 -15.5q-35 0 -60 25t-25 60zM610 655v-710q0 -25 -17.5 -42.5t-42.5 -17.5h-460q-25 0 -42.5 17.5t-17.5 42.5v710q0 25 17.5 42.5t42.5 17.5h460q25 0 42.5 -17.5t17.5 -42.5zM550 685h-460 q-13 0 -21.5 -8.5t-8.5 -21.5v-710q0 -13 8.5 -21.5t21.5 -8.5h460q13 0 21.5 8.5t8.5 21.5v710q0 13 -8.5 21.5t-21.5 8.5z" /></g></svg>