<svg xmlns="http://www.w3.org/2000/svg" viewBox="30 -115 580 830"><g><path d="M485 76q5 -10 13 -11l7 7v3q0 16 -11 29l-9 1q-6 -6 -6 -14q6 -6 6 -15zM435 76q0 9 6 15q0 8 -6 14l-9 -1q-11 -13 -11 -29v-3l7 -7q8 1 13 11zM205 76q5 -10 13 -11l7 7v3q0 16 -11 29l-9 1q-6 -6 -6 -14q6 -6 6 -15zM155 76q0 9 6 15q0 8 -6 14l-9 -1q-11 -13 -11 -29 v-3l7 -7q8 1 13 11zM345 76q5 -10 13 -11l7 7v3q0 16 -11 29l-9 1q-6 -6 -6 -14q6 -6 6 -15zM295 76q0 9 6 15q0 8 -6 14l-9 -1q-11 -13 -11 -29v-3l7 -7q8 1 13 11zM485 301q5 -10 13 -11l7 7v3q0 16 -11 29l-9 1q-6 -6 -6 -14q6 -6 6 -15zM435 301q0 9 6 15q0 8 -6 14 l-9 -1q-11 -13 -11 -29v-3l7 -7q8 1 13 11zM205 301q5 -10 13 -11l7 7v3q0 16 -11 29l-9 1q-6 -6 -6 -14q6 -6 6 -15zM155 301q0 9 6 15q0 8 -6 14l-9 -1q-11 -13 -11 -29v-3l7 -7q8 1 13 11zM345 301q5 -10 13 -11l7 7v3q0 16 -11 29l-9 1q-6 -6 -6 -14q6 -6 6 -15z M295 301q0 9 6 15q0 8 -6 14l-9 -1q-11 -13 -11 -29v-3l7 -7q8 1 13 11zM485 526q5 -10 13 -11l7 7v3q0 16 -11 29l-9 1q-6 -6 -6 -14q6 -6 6 -15zM435 526q0 9 6 15q0 8 -6 14l-9 -1q-11 -13 -11 -29v-3l7 -7q8 1 13 11zM205 526q5 -10 13 -11l7 7v3q0 16 -11 29l-9 1 q-6 -6 -6 -14q6 -6 6 -15zM155 526q0 9 6 15q0 8 -6 14l-9 -1q-11 -13 -11 -29v-3l7 -7q8 1 13 11zM120 75q0 -25 17.5 -42.5t42.5 -17.5t42.5 17.5t17.5 42.5t-17.5 42.5t-42.5 17.5t-42.5 -17.5t-17.5 -42.5zM130 75q0 21 14.5 35.5t35.5 14.5t35.5 -14.5t14.5 -35.5 t-14.5 -35.5t-35.5 -14.5t-35.5 14.5t-14.5 35.5zM170 75q0 10 10 10t10 -10t-10 -10t-10 10zM160 75q0 -8 6 -14t14 -6t14 6t6 14t-6 14t-14 6t-14 -6t-6 -14zM174 51q-10 2 -15 11l-8 2l-7 -3l-2 -10q11 -16 27 -19l9 4v8zM191 32q16 3 27 19l-2 10l-7 3l-8 -2 q-5 -9 -15 -11l-4 -7v-8zM159 108q3 -9 12 -10q6 2 9 2t9 -2q9 1 12 10l-4 9q-7 3 -17 3t-17 -3zM105 75q0 31 22 53t53 22q24 0 43 -13.5t27 -34.5q8 21 27 34.5t43 13.5t43 -13.5t27 -34.5q8 21 27 34.5t43 13.5q31 0 53 -22t22 -53t-22 -53t-53 -22q-24 0 -43 13.5 t-27 34.5q-8 -21 -27 -34.5t-43 -13.5t-43 13.5t-27 34.5q-8 -21 -27 -34.5t-43 -13.5q-31 0 -53 22t-22 53zM400 75q0 -25 17.5 -42.5t42.5 -17.5t42.5 17.5t17.5 42.5t-17.5 42.5t-42.5 17.5t-42.5 -17.5t-17.5 -42.5zM410 75q0 21 14.5 35.5t35.5 14.5t35.5 -14.5 t14.5 -35.5t-14.5 -35.5t-35.5 -14.5t-35.5 14.5t-14.5 35.5zM450 75q0 10 10 10t10 -10t-10 -10t-10 10zM440 75q0 -8 6 -14t14 -6t14 6t6 14t-6 14t-14 6t-14 -6t-6 -14zM454 51q-10 2 -15 11l-8 2l-7 -3l-2 -10q11 -16 27 -19l9 4v8zM471 32q16 3 27 19l-2 10l-7 3l-8 -2 q-5 -9 -15 -11l-4 -7v-8zM439 108q3 -9 12 -10q6 2 9 2t9 -2q9 1 12 10l-4 9q-7 3 -17 3t-17 -3zM260 75q0 -25 17.5 -42.5t42.5 -17.5t42.5 17.5t17.5 42.5t-17.5 42.5t-42.5 17.5t-42.5 -17.5t-17.5 -42.5zM270 75q0 21 14.5 35.5t35.5 14.5t35.5 -14.5t14.5 -35.5 t-14.5 -35.5t-35.5 -14.5t-35.5 14.5t-14.5 35.5zM310 75q0 10 10 10t10 -10t-10 -10t-10 10zM300 75q0 -8 6 -14t14 -6t14 6t6 14t-6 14t-14 6t-14 -6t-6 -14zM314 51q-10 2 -15 11l-8 2l-7 -3l-2 -10q11 -16 27 -19l9 4v8zM331 32q16 3 27 19l-2 10l-7 3l-8 -2 q-5 -9 -15 -11l-4 -7v-8zM299 108q3 -9 12 -10q6 2 9 2t9 -2q9 1 12 10l-4 9q-7 3 -17 3t-17 -3zM120 525q0 -25 17.5 -42.5t42.5 -17.5t42.5 17.5t17.5 42.5t-17.5 42.5t-42.5 17.5t-42.5 -17.5t-17.5 -42.5zM130 525q0 21 14.5 35.5t35.5 14.5t35.5 -14.5t14.5 -35.5 t-14.5 -35.5t-35.5 -14.5t-35.5 14.5t-14.5 35.5zM170 525q0 10 10 10t10 -10t-10 -10t-10 10zM160 525q0 -8 6 -14t14 -6t14 6t6 14t-6 14t-14 6t-14 -6t-6 -14zM174 501q-10 2 -15 11l-8 2l-7 -3l-2 -10q11 -16 27 -19l9 4v8zM191 482q16 3 27 19l-2 10l-7 3l-8 -2 q-5 -9 -15 -11l-4 -7v-8zM159 558q3 -9 12 -10q6 2 9 2t9 -2q9 1 12 10l-4 9q-7 3 -17 3t-17 -3zM105 525q0 31 22 53t53 22q24 0 43 -13.5t27 -34.5q8 21 27 34.5t43 13.5t43 -13.5t27 -34.5q8 21 27 34.5t43 13.5q31 0 53 -22t22 -53t-22 -53t-53 -22q-24 0 -43 13.5 t-27 34.5q-8 -21 -27 -34.5t-43 -13.5t-43 13.5t-27 34.5q-8 -21 -27 -34.5t-43 -13.5q-31 0 -53 22t-22 53zM400 525q0 -25 17.5 -42.5t42.5 -17.5t42.5 17.5t17.5 42.5t-17.5 42.5t-42.5 17.5t-42.5 -17.5t-17.5 -42.5zM410 525q0 21 14.5 35.5t35.5 14.5t35.5 -14.5 t14.5 -35.5t-14.5 -35.5t-35.5 -14.5t-35.5 14.5t-14.5 35.5zM450 525q0 10 10 10t10 -10t-10 -10t-10 10zM440 525q0 -8 6 -14t14 -6t14 6t6 14t-6 14t-14 6t-14 -6t-6 -14zM454 501q-10 2 -15 11l-8 2l-7 -3l-2 -10q11 -16 27 -19l9 4v8zM471 482q16 3 27 19l-2 10l-7 3 l-8 -2q-5 -9 -15 -11l-4 -7v-8zM439 558q3 -9 12 -10q6 2 9 2t9 -2q9 1 12 10l-4 9q-7 3 -17 3t-17 -3zM260 525q0 -25 17.5 -42.5t42.5 -17.5t42.5 17.5t17.5 42.5t-17.5 42.5t-42.5 17.5t-42.5 -17.5t-17.5 -42.5zM270 525q0 21 14.5 35.5t35.5 14.5t35.5 -14.5 t14.5 -35.5t-14.5 -35.5t-35.5 -14.5t-35.5 14.5t-14.5 35.5zM310 525q0 10 10 10t10 -10t-10 -10t-10 10zM300 525q0 -8 6 -14t14 -6t14 6t6 14t-6 14t-14 6t-14 -6t-6 -14zM314 501q-10 2 -15 11l-8 2l-7 -3l-2 -10q11 -16 27 -19l9 4v8zM331 482q16 3 27 19l-2 10l-7 3 l-8 -2q-5 -9 -15 -11l-4 -7v-8zM345 526q5 -10 13 -11l7 7v3q0 16 -11 29l-9 1q-6 -6 -6 -14q6 -6 6 -15zM295 526q0 9 6 15q0 8 -6 14l-9 -1q-11 -13 -11 -29v-3l7 -7q8 1 13 11zM299 558q3 -9 12 -10q6 2 9 2t9 -2q9 1 12 10l-4 9q-7 3 -17 3t-17 -3zM120 300 q0 -25 17.5 -42.5t42.5 -17.5t42.5 17.5t17.5 42.5t-17.5 42.5t-42.5 17.5t-42.5 -17.5t-17.5 -42.5zM130 300q0 21 14.5 35.5t35.5 14.5t35.5 -14.5t14.5 -35.5t-14.5 -35.5t-35.5 -14.5t-35.5 14.5t-14.5 35.5zM170 300q0 10 10 10t10 -10t-10 -10t-10 10zM160 300 q0 -8 6 -14t14 -6t14 6t6 14t-6 14t-14 6t-14 -6t-6 -14zM174 276q-10 2 -15 11l-8 2l-7 -3l-2 -10q11 -16 27 -19l9 4v8zM191 257q16 3 27 19l-2 10l-7 3l-8 -2q-5 -9 -15 -11l-4 -7v-8zM159 333q3 -9 12 -10q6 2 9 2t9 -2q9 1 12 10l-4 9q-7 3 -17 3t-17 -3zM105 300 q0 31 22 53t53 22q24 0 43 -13.5t27 -34.5q8 21 27 34.5t43 13.5t43 -13.5t27 -34.5q8 21 27 34.5t43 13.5q31 0 53 -22t22 -53t-22 -53t-53 -22q-24 0 -43 13.5t-27 34.5q-8 -21 -27 -34.5t-43 -13.5t-43 13.5t-27 34.5q-8 -21 -27 -34.5t-43 -13.5q-31 0 -53 22t-22 53z M400 300q0 -25 17.5 -42.5t42.5 -17.5t42.5 17.5t17.5 42.5t-17.5 42.5t-42.5 17.5t-42.5 -17.5t-17.5 -42.5zM410 300q0 21 14.5 35.5t35.5 14.5t35.5 -14.5t14.5 -35.5t-14.5 -35.5t-35.5 -14.5t-35.5 14.5t-14.5 35.5zM450 300q0 10 10 10t10 -10t-10 -10t-10 10z M440 300q0 -8 6 -14t14 -6t14 6t6 14t-6 14t-14 6t-14 -6t-6 -14zM454 276q-10 2 -15 11l-8 2l-7 -3l-2 -10q11 -16 27 -19l9 4v8zM471 257q16 3 27 19l-2 10l-7 3l-8 -2q-5 -9 -15 -11l-4 -7v-8zM439 333q3 -9 12 -10q6 2 9 2t9 -2q9 1 12 10l-4 9q-7 3 -17 3t-17 -3z M260 300q0 -25 17.5 -42.5t42.5 -17.5t42.5 17.5t17.5 42.5t-17.5 42.5t-42.5 17.5t-42.5 -17.5t-17.5 -42.5zM270 300q0 21 14.5 35.5t35.5 14.5t35.5 -14.5t14.5 -35.5t-14.5 -35.5t-35.5 -14.5t-35.5 14.5t-14.5 35.5zM310 300q0 10 10 10t10 -10t-10 -10t-10 10z M300 300q0 -8 6 -14t14 -6t14 6t6 14t-6 14t-14 6t-14 -6t-6 -14zM314 276q-10 2 -15 11l-8 2l-7 -3l-2 -10q11 -16 27 -19l9 4v8zM331 257q16 3 27 19l-2 10l-7 3l-8 -2q-5 -9 -15 -11l-4 -7v-8zM299 333q3 -9 12 -10q6 2 9 2t9 -2q9 1 12 10l-4 9q-7 3 -17 3t-17 -3z M550 685h-460q-13 0 -21.5 -8.5t-8.5 -21.5v-710q0 -13 8.5 -21.5t21.5 -8.5h460q13 0 21.5 8.5t8.5 21.5v710q0 13 -8.5 21.5t-21.5 8.5zM610 655v-710q0 -25 -17.5 -42.5t-42.5 -17.5h-460q-25 0 -42.5 17.5t-17.5 42.5v710q0 25 17.5 42.5t42.5 17.5h460q25 0 42.5 -17.5 t17.5 -42.5z" /></g></svg>